<svg xmlns="http://www.w3.org/2000/svg" xmlns:xlink="http://www.w3.org/1999/xlink" viewBox="0 0 1000 1000">
  <defs>
    <style>
      .cls-1, .cls-26, .cls-27 {
        fill: none;
      }

      .cls-2, .cls-4 {
        fill: #f2d57e;
      }

      .cls-2, .cls-27 {
        stroke: #fff;
        stroke-miterlimit: 10;
        stroke-width: 49px;
      }

      .cls-3 {
        clip-path: url(#clip-path);
      }

      .cls-5 {
        clip-path: url(#clip-path-2);
      }

      .cls-6 {
        fill: #231005;
      }

      .cls-7 {
        fill: #fffcf5;
      }

      .cls-8 {
        fill: #e8e5e0;
      }

      .cls-9 {
        opacity: 0.81;
      }

      .cls-10 {
        fill: url(#linear-gradient);
      }

      .cls-11 {
        fill: #fcffd6;
      }

      .cls-12 {
        fill: #0e0700;
      }

      .cls-13 {
        fill: #fcc2dd;
      }

      .cls-14 {
        fill: #fffdef;
      }

      .cls-15 {
        fill: #fffdc0;
      }

      .cls-16 {
        fill: #f9eec6;
      }

      .cls-17 {
        fill: #868077;
      }

      .cls-18 {
        fill: #534b3f;
      }

      .cls-19 {
        fill: #30281c;
      }

      .cls-20 {
        fill: #280904;
      }

      .cls-21 {
        fill: #965431;
      }

      .cls-22 {
        fill: #4a2b0f;
      }

      .cls-23 {
        fill: url(#linear-gradient-2);
      }

      .cls-24 {
        fill: #fff2d0;
      }

      .cls-25 {
        fill: #120600;
      }

      .cls-26 {
        stroke: #000;
        stroke-width: 0.3px;
      }
    </style>
    <clipPath id="clip-path">
      <rect class="cls-1" width="1000" height="1000"/>
    </clipPath>
    <clipPath id="clip-path-2">
      <circle class="cls-2" cx="500" cy="500" r="443.75"/>
    </clipPath>
    <linearGradient id="linear-gradient" x1="355.98" y1="531.25" x2="444.33" y2="531.25" gradientUnits="userSpaceOnUse">
      <stop offset="0" stop-color="#fff"/>
      <stop offset="0.03" stop-color="#f9e0a8"/>
      <stop offset="1" stop-color="#302525"/>
    </linearGradient>
    <linearGradient id="linear-gradient-2" x1="248.96" y1="527.29" x2="337.31" y2="527.29" gradientTransform="matrix(-1, 0, 0, 1, 872.02, 0)" xlink:href="#linear-gradient"/>
  </defs>
  <title>chico-circle-container</title>
  <g id="Layer_2" data-name="Layer 2">
    <g class="cls-3">
      <g id="CHICO">
        <circle class="cls-4" cx="500" cy="500" r="443.75"/>
        <g class="cls-5">
          <g id="Chico-2" data-name="Chico">
            <g>
              <g id="back">
                <path class="cls-6" d="M363.86,922.47c-16.89-12.82-34.35-27.19-52-43.26a766.09,766.09,0,0,1-98.77-109l26.05-23.88s-26.05-23.88-26.05,0c0,0-2.17-45.59-32.56-47.76L219.57,679s-52.1-2.17-4.34-47.76c0,0,17.37-23.88-34.73-19.54L228.25,577s-28.22-18.23-13-20c0,0-15.2-30-34.73-40.81l26.05-10.86s-10.86-19.54,19.53-21.71c0,0,2.17-19.53-19.53-19.53,0,0-36.91-43.42-10.86-41.25,0,0-21.71-26,0-28.22,0,0-15.91-19.72,1.11-31.06,0,0-3.24-7.29-20.26-13,0,0,.81-13.77,14.59-12.15,0,0-25.12.81-1.62-25.11,0,0,52.65,6.48,22.68-88.3,0,0,64.06-50.23,133.29,23.49l5.24-19.44s15.39,6.48,21.87,29.16l3.24-44.56s31.59,30.79,25.11,81.82c0,0,29.16-14.58,62.38-3.24,0,0,39.69-26.73,105.31,6.48l-6.48-30,16.2.81s-8.73-58.33,34.92-16.2c0,0,18.55,5.67,35.56-5.67,0,0,129.62-54.28,129.62,39.69,0,0-27.52,50.67,19.61,54.7,0,0-26.93,33.67-9.42,55.21,0,0,5.38,61.94-33.67,57.9,0,0-12.11,37.7,12.12,45.78,0,0,17.51,12.11-22.89,10.77,0,0,36.36,29.71,48.47,65.35l-16.15,14.09,12.12,8.08-20.2,5.38s-5.39,14.81,29.62,9.43l-10.77,14.81s43.09,5.38,43.09-9.43c0,0,6.73,74.06-40.4,72.71l33.66,21.54,16.16,16.16v18.85A196.52,196.52,0,0,1,825,790.64c-41.69,85.29-134.28,114.87-164.21,123.08a596.15,596.15,0,0,1-296.9,8.75Z"/>
              </g>
              <g id="white_mouth" data-name="white mouth">
                <path class="cls-7" d="M445.8,586.4S423.37,551.1,398.45,601c0,0,19.94,40.47-6.23,42.07,0,0,11.21,20.29-21.19,17.8,0,0-18.69,31.15,13.71,41.12,0,0-48.6-26.17-61.07-24.92,0,0-5-26.17-33.65,0,0,0-3.73,42.37,36.15,41.12,0,0,64.8,105.93,119.63,107.18,0,0,54.84-44.87,78.52-19.94,0,0,13.71-5,21.18-15,0,0,57.33-6.23,52.35-48.6,0,0,60.36-98.45,88.75-86,0,0-4.72-22.64-65.43,14.23,0,0,42.73-34.17-5.88-14.23L576.66,692s57.33-54.83-15-81c0,0-21.18-45.76-54.83-34.1C506.87,576.91,488.18,594.19,445.8,586.4Z"/>
              </g>
              <g id="tag">
                <path class="cls-8" d="M441.23,846.06h77.25a14.23,14.23,0,0,1,14.22,14.23v33a14.22,14.22,0,0,1-4,9.87L494,939.24a14.22,14.22,0,0,1-18.78,1.51L435.64,911.1A14.28,14.28,0,0,1,430,900.77l-2.94-39.42A14.23,14.23,0,0,1,441.23,846.06Z"/>
              </g>
              <g class="cls-9">
                <path class="cls-10" d="M366.44,497.22s-38.33,60.42,31.76,69c0,0,41.88,6.62,46.13-33.46C444.33,532.76,410.25,487.54,366.44,497.22Z"/>
              </g>
              <g id="left_ear" data-name="left ear">
                <path class="cls-11" d="M248.13,433.19s9.11-25.82,57.72-12.15c0,0-1.52-18.61,33.41-4l-21.38-23.69,21.38-8.77-6.07-27.34a171.55,171.55,0,0,0-22.47-17.56c-6.08-3.82-12.28-6.74-17-6.74,0,0-25.82-28.86-28.85-10.63,0,0-33.42,25.82-7.6,66.83Z"/>
              </g>
              <path id="right_ear" data-name="right ear" class="cls-11" d="M640.16,413.45s75.78-1.52,86.41-21.27c0,0,16.87-56.19-43.2-50.12,0,0-69.19-11.09-49.45,35.46Z"/>
              <g id="mouth_back" data-name="mouth back">
                <path class="cls-12" d="M389.38,677.73s27.34,30.38,56.2,7.6c0,0,100.25,7.51,115.44-15.23,0,0-34.94,121.55-85.82,110.92C475.2,781,427.36,794.69,389.38,677.73Z"/>
              </g>
              <g id="tongue">
                <path class="cls-13" d="M447.1,696s13.67,25.82,31.9,9.11c0,0,15.19-9.56,27.34-1.74L524.56,696s-16.7,68.35-38.73,62.27c0,0-34.17,25.82-64.55-53.16Z"/>
              </g>
              <g id="white_tongue" data-name="white tongue">
                <path class="cls-14" d="M507.86,703.55s5.23-14.11,16.58-6.95c0,0-14.93,88.37-51.35,66.28C473.09,762.88,522.32,745.13,507.86,703.55Z"/>
              </g>
              <g id="left_cheek" data-name="left cheek">
                <path class="cls-15" d="M304,536.71c3.38-4.24,15.77-18.35,23.49-8.13a14.15,14.15,0,0,1,1.05,14.8c-6.66,13.36-21.25,46.94-4.52,55.65a14.46,14.46,0,0,1,7.84,14.23c-1.1,10.74-7.15,22.84-31.66,10.28a13.86,13.86,0,0,1-2.88-2c-7.91-7-43.76-42.7,4.54-82.69A15.13,15.13,0,0,0,304,536.71Z"/>
              </g>
              <g id="right_cheek" data-name="right cheek">
                <path class="cls-16" d="M626.83,604.57s11.24-8.7,13.14-28a16.77,16.77,0,0,1,10.14-14c14.59-6.12,39.69-10.23,36.15,36.32,0,0-36.08,58-59.43,41C626.83,640,614.1,610.94,626.83,604.57Z"/>
              </g>
              <path class="cls-17" d="M558.88,657.8a22.43,22.43,0,0,1,19.87,12.3S584,640.59,558.88,657.8Z"/>
              <path class="cls-18" d="M404.53,747.9s-32.89-19.73,0,19.74C404.53,767.64,414.39,769.28,404.53,747.9Z"/>
              <path class="cls-18" d="M351.9,677.19s20.1,34.53,38,31.24c0,0,0-16.44-19-31.24Z"/>
              <path class="cls-19" d="M541.29,743s-19.45,30.55-4,30.55,10.06-11.41,10.06-11.41l11.55,5.56s6.19,4.33,0-12.35c0,0-9.54-20,16.62-27.41C575.5,727.91,570.8,701.69,541.29,743Z"/>
              <g id="backnose">
                <path class="cls-20" d="M463,670.1s-74.35-73.78,12.14-70.75c0,0,75.87-16.32,13.65,70.75C488.76,670.1,476.27,685.42,463,670.1Z"/>
              </g>
              <path class="cls-21" d="M448.26,611.25c5-2.44,12.51-4.7,18.78-1.07a11,11,0,0,0,11.26-.49c6.66-4.18,17.11-7.8,24.24,3.8a10.21,10.21,0,0,1,1.14,2.68c2.19,7.76,1.3,43.62-18.1,56.92-1.17.8-5.77,3.9-7.17,3.82-9.13-.54-39.5-12.38-36.52-56.12A11.4,11.4,0,0,1,448.26,611.25Z"/>
              <path class="cls-22" d="M447,626.36s24.21,3.85,4.4,12.66c0,0-2,7.71,7.79,5.51C459.15,644.53,477.23,614.8,447,626.36Z"/>
              <path class="cls-22" d="M495.94,623.69s-11,6.52,0,17.53c0,0-18.16,9-10.46-17.53C485.48,623.69,492.64,616.62,495.94,623.69Z"/>
              <g class="cls-9">
                <path class="cls-23" d="M612.6,493.26s38.33,60.42-31.76,69c0,0-41.87,6.62-46.13-33.46C534.71,528.8,568.79,483.58,612.6,493.26Z"/>
              </g>
              <path class="cls-24" d="M413.07,512.66l31.26,20.1s-7.81,48-63.63,29C380.7,561.78,426.47,549.5,413.07,512.66Z"/>
              <path id="Right_under_eye" data-name="Right under eye" class="cls-24" d="M525.83,527.18l22.32-7.82s1.12,44.66,35.73,41.31C583.88,560.67,540.34,607.56,525.83,527.18Z"/>
              <path id="Left_eyebrow" data-name="Left eyebrow" class="cls-24" d="M426.47,470.24s49.12,1.12,17.86,42.42C444.33,512.66,389.63,520.48,426.47,470.24Z"/>
              <path id="Right_eyebrow" data-name="Right eyebrow" class="cls-24" d="M525.83,476.94s22.32,21.65,39.07,14.73c0,0-26.79,38.62-43.54,21.43C521.36,513.1,508,497,525.83,476.94Z"/>
              <g id="Right_eye" data-name="Right eye">
                <path class="cls-25" d="M564.9,531.64s15.63,11.71,7.82-14.13c0,0,16.38-14.85,22.24,13.42a11.85,11.85,0,0,1-2.75,10.27C586.2,547.91,574,556.67,564.9,531.64Z"/>
              </g>
              <g id="Left_eye" data-name="Left eye">
                <path class="cls-25" d="M388.35,512.66s-30.78,17.1,0,34.15c0,0,10.32,2.46,17.52-15.84C405.87,531,381.78,539.22,388.35,512.66Z"/>
              </g>
              <path class="cls-6" d="M511.83,867.7c-18-.79-36.23-1.57-53.93,2.26-2.66.57-14,1.61-11.58,6.78,2.23,4.69,10.92,5.9,15.3,6.46,9.19,1.17,18.48,1.79,27.7,2.66l6.68.63c2.3.22,6.18,0,8.29.88s1.33-1,1.41,3.64c.07,4.17.47,3.24-2.81,3.7l-7.63,1.07-28.6,4c-5,.7-10.34,2-8.18,8.29,2,5.92,9.35,8.66,15,9.54,9.95,1.57,19.94-1.4,29.92.13,1.06.16,1.51-1.46.44-1.62-7.64-1.18-15.11.13-22.77.27-6.7.13-19.22-1.16-20.92-9.4-1.23-6,7.8-5.71,11.76-6.26l13.35-1.87,12.4-1.74c3.28-.47,8-.27,10.94-1.89,2.77-1.53,2.75-5,.71-7.24-3.61-4-12.38-3.11-17.09-3.56q-12.87-1.22-25.75-2.43a60.29,60.29,0,0,1-10.69-1.63c-1.59-.45-5-1.24-6-2.69l-.16-1.87c-.74-1.37-.5-2.09.72-2.15.7-.6,2.67-.78,3.56-1,18.88-5,38.66-4.13,58-3.28,1.08,0,1.08-1.63,0-1.68Z"/>
            </g>
            <line class="cls-26" x1="176.54" y1="154.33" x2="176.54" y2="190.33"/>
            <line class="cls-26" x1="122.54" y1="208.33" x2="158.54" y2="208.33"/>
            <line class="cls-26" x1="122.54" y1="943.6" x2="158.54" y2="943.6"/>
            <line class="cls-26" x1="176.54" y1="997.6" x2="176.54" y2="961.6"/>
            <line class="cls-26" x1="839.8" y1="154.33" x2="839.8" y2="190.33"/>
            <line class="cls-26" x1="893.8" y1="208.33" x2="857.8" y2="208.33"/>
            <line class="cls-26" x1="893.8" y1="943.6" x2="857.8" y2="943.6"/>
            <line class="cls-26" x1="839.8" y1="997.6" x2="839.8" y2="961.6"/>
          </g>
        </g>
        <circle class="cls-27" cx="500" cy="500" r="443.75"/>
      </g>
    </g>
  </g>
</svg>
