<svg id="Layer_1" data-name="Layer 1" xmlns="http://www.w3.org/2000/svg" xmlns:xlink="http://www.w3.org/1999/xlink" viewBox="0 0 909.23 757.83">
  <defs>
    <style>
      .cls-1 {
        fill: #231005;
      }

      .cls-2 {
        fill: #fffcf5;
      }

      .cls-3 {
        fill: #e8e5e0;
      }

      .cls-17, .cls-4 {
        opacity: 0.81;
      }

      .cls-4 {
        fill: url(#linear-gradient);
      }

      .cls-5 {
        fill: #fcffd6;
      }

      .cls-6 {
        fill: #0e0700;
      }

      .cls-7 {
        fill: #fcc2dd;
      }

      .cls-8 {
        fill: #fffdef;
      }

      .cls-9 {
        fill: #fffdc0;
      }

      .cls-10 {
        fill: #f9eec6;
      }

      .cls-11 {
        fill: #868077;
      }

      .cls-12 {
        fill: #534b3f;
      }

      .cls-13 {
        fill: #30281c;
      }

      .cls-14 {
        fill: #280904;
      }

      .cls-15 {
        fill: #965431;
      }

      .cls-16 {
        fill: #4a2b0f;
      }

      .cls-17 {
        fill: url(#linear-gradient-2);
      }

      .cls-18 {
        fill: #fff2d0;
      }

      .cls-19 {
        fill: #120600;
      }
    </style>
    <linearGradient id="linear-gradient" x1="272.82" y1="575.31" x2="362.44" y2="575.31" gradientUnits="userSpaceOnUse">
      <stop offset="0" stop-color="#fff"/>
      <stop offset="0.03" stop-color="#f9e0a8"/>
      <stop offset="1" stop-color="#302525"/>
    </linearGradient>
    <linearGradient id="linear-gradient-2" x1="328.26" y1="571.24" x2="417.88" y2="571.24" gradientTransform="matrix(-1, 0, 0, 1, 872.02, 0)" xlink:href="#linear-gradient"/>
  </defs>
  <title>chico-illustration</title>
  <g id="Chico">
    <path id="back" class="cls-1" d="M262.16,1001.35S215.91,878.79,127.82,820.8l26.42-24.54s-26.42-24.53-26.42,0c0,0-2.21-46.84-33-49.07l39.64-20.07s-52.85-2.23-4.4-49.07c0,0,17.62-24.54-35.24-20.08l48.45-35.68S114.6,603.56,130,601.77c0,0-15.42-30.78-35.24-41.94l26.43-11.15s-11-20.07,19.82-22.3c0,0,2.2-20.08-19.82-20.08,0,0-37.44-44.61-11-42.38,0,0-22-26.76,0-29,0,0-16.14-20.26,1.12-31.91,0,0-3.29-7.49-20.55-13.32,0,0,.82-14.15,14.79-12.49,0,0-25.47.84-1.64-25.8,0,0,53.42,6.66,23-90.72,0,0,65-51.61,135.23,24.13l5.31-20s15.62,6.66,22.19,30L293,249S325,280.66,318.43,333.1c0,0,29.58-15,63.28-3.33,0,0,40.27-27.47,106.84,6.66L482,305.63l16.43.83s-8.86-59.92,35.43-16.64c0,0,18.82,5.82,36.07-5.83,0,0,131.5-55.77,131.5,40.79,0,0-27.91,52.05,19.9,56.2,0,0-27.32,34.59-9.56,56.72,0,0,5.46,63.64-34.15,59.49,0,0-12.3,38.73,12.29,47,0,0,17.76,12.46-23.22,11.07,0,0,36.88,30.53,49.18,67.15l-16.4,14.47,12.3,8.31-20.49,5.53s-5.47,15.22,30,9.68l-10.93,15.22s43.71,5.53,43.71-9.68c0,0,6.83,76.08-41,74.7l34.15,22.14,16.4,16.6v19.37l9.56,20.75s2.73,26.28,21.85,26.28l6.83,20.75s53.28,4.15,86.06,37.36c0,0,0-27.67,35.52,26.28,0,0,10.92-47,39.61,41.5,0,0,19.12-1.38,21.86,19.37,0,0,20.49-1.57,13.66,10.28Z" transform="translate(-90.77 -243.52)"/>
    <path id="white_mouth" data-name="white mouth" class="cls-2" d="M363.94,632s-22.76-36.27-48.05,15c0,0,20.23,41.58-6.32,43.22,0,0,11.38,20.85-21.49,18.29,0,0-19,32,13.91,42.25,0,0-49.31-26.89-62-25.61,0,0-5.06-26.89-34.14,0,0,0-3.79,43.54,36.66,42.26,0,0,65.75,108.84,121.38,110.12,0,0,55.63-46.1,79.65-20.49,0,0,13.91-5.12,21.5-15.37,0,0,58.16-6.4,53.1-49.93,0,0,61.23-101.16,90-88.36,0,0-4.78-23.26-66.38,14.62,0,0,43.35-35.1-6-14.62l-39.2,37.14s58.16-56.34-15.17-83.23c0,0-21.49-47-55.63-35C425.89,622.23,406.93,640,363.94,632Z" transform="translate(-90.77 -243.52)"/>
    <path id="tag" class="cls-3" d="M359.3,898.77h78.37a14.52,14.52,0,0,1,14.43,14.62v33.88a14.72,14.72,0,0,1-4,10.14L412.79,994.5a14.3,14.3,0,0,1-19.05,1.56l-40.11-30.47A14.67,14.67,0,0,1,347.9,955l-3-40.51A14.55,14.55,0,0,1,359.3,898.77Z" transform="translate(-90.77 -243.52)"/>
    <path class="cls-4" d="M283.43,540.35s-38.89,62.07,32.22,70.89c0,0,42.48,6.8,46.79-34.38C362.44,576.86,327.87,530.4,283.43,540.35Z" transform="translate(-90.77 -243.52)"/>
    <path id="left_ear" data-name="left ear" class="cls-5" d="M163.39,474.56S172.64,448,222,462.08c0,0-1.54-19.13,33.9-4.11l-21.69-24.33,21.69-9-6.16-28.09a175,175,0,0,0-22.79-18c-6.17-3.92-12.47-6.93-17.28-6.93,0,0-26.19-29.65-29.28-10.92,0,0-33.9,26.53-7.7,68.66Z" transform="translate(-90.77 -243.52)"/>
    <path id="right_ear" data-name="right ear" class="cls-5" d="M561.11,454.27s76.89-1.56,87.68-21.85c0,0,17.11-57.74-43.84-51.5,0,0-70.19-11.39-50.16,36.44Z" transform="translate(-90.77 -243.52)"/>
    <path id="mouth_back" data-name="mouth back" class="cls-6" d="M306.7,725.82s27.74,31.21,57,7.8c0,0,101.71,7.72,117.11-15.65,0,0-35.44,124.89-87.06,114C393.76,831.94,345.22,846,306.7,725.82Z" transform="translate(-90.77 -243.52)"/>
    <path id="tongue" class="cls-7" d="M365.26,744.54s13.86,26.53,32.35,9.37c0,0,15.41-9.83,27.74-1.79l18.49-7.58s-16.95,70.23-39.29,64c0,0-34.67,26.53-65.49-54.62Z" transform="translate(-90.77 -243.52)"/>
    <path id="white_tongue" data-name="white tongue" class="cls-8" d="M426.89,752.35s5.31-14.51,16.82-7.14c0,0-15.14,90.79-52.09,68.09C391.62,813.3,441.57,795.07,426.89,752.35Z" transform="translate(-90.77 -243.52)"/>
    <path id="left_cheek" data-name="left cheek" class="cls-9" d="M220.05,580.92c3.42-4.35,16-18.85,23.83-8.35a14.68,14.68,0,0,1,1.06,15.2C238.18,601.5,223.38,636,240.36,645a14.9,14.9,0,0,1,7.95,14.62c-1.12,11-7.25,23.47-32.12,10.56a14.22,14.22,0,0,1-2.92-2c-8-7.14-44.39-43.87,4.6-85A15.32,15.32,0,0,0,220.05,580.92Z" transform="translate(-90.77 -243.52)"/>
    <path id="right_cheek" data-name="right cheek" class="cls-10" d="M547.59,650.64s11.41-8.94,13.33-28.78a17.26,17.26,0,0,1,10.29-14.35c14.8-6.29,40.27-10.51,36.68,37.32,0,0-36.61,59.61-60.3,42.16C547.59,687,534.67,657.19,547.59,650.64Z" transform="translate(-90.77 -243.52)"/>
    <path class="cls-11" d="M478.66,705.34A22.67,22.67,0,0,1,498.81,718S504.19,687.65,478.66,705.34Z" transform="translate(-90.77 -243.52)"/>
    <path class="cls-12" d="M322.06,797.91s-33.37-20.27,0,20.28C322.06,818.19,332.07,819.88,322.06,797.91Z" transform="translate(-90.77 -243.52)"/>
    <path class="cls-12" d="M268.67,725.26s20.39,35.48,38.56,32.1c0,0,0-16.9-19.28-32.1Z" transform="translate(-90.77 -243.52)"/>
    <path class="cls-13" d="M460.81,792.85s-19.73,31.38-4.08,31.38,10.21-11.72,10.21-11.72l11.72,5.71s6.28,4.45,0-12.69c0,0-9.68-20.58,16.86-28.16C495.52,777.37,490.75,750.43,460.81,792.85Z" transform="translate(-90.77 -243.52)"/>
    <path id="backnose" class="cls-14" d="M381.35,718s-75.43-75.8,12.32-72.68c0,0,77-16.77,13.85,72.68C407.52,718,394.85,733.72,381.35,718Z" transform="translate(-90.77 -243.52)"/>
    <path class="cls-15" d="M366.43,657.51c5.11-2.5,12.69-4.83,19.05-1.1a11,11,0,0,0,11.42-.51c6.77-4.29,17.37-8,24.6,3.91a10.47,10.47,0,0,1,1.15,2.76c2.22,8,1.33,44.81-18.36,58.48-1.18.82-5.85,4-7.27,3.92-9.26-.55-40.07-12.72-37-57.66A11.7,11.7,0,0,1,366.43,657.51Z" transform="translate(-90.77 -243.52)"/>
    <path class="cls-16" d="M365.11,673s24.57,4,4.46,13c0,0-2.05,7.92,7.91,5.66C377.48,691.7,395.82,661.16,365.11,673Z" transform="translate(-90.77 -243.52)"/>
    <path class="cls-16" d="M414.81,670.29s-11.17,6.7,0,18c0,0-18.43,9.22-10.61-18C404.2,670.29,411.45,663,414.81,670.29Z" transform="translate(-90.77 -243.52)"/>
    <path class="cls-17" d="M533.16,536.28s38.88,62.07-32.23,70.9c0,0-42.48,6.8-46.79-34.39C454.14,572.79,488.71,526.33,533.16,536.28Z" transform="translate(-90.77 -243.52)"/>
    <path class="cls-18" d="M330.73,556.21l31.71,20.65s-7.92,49.32-64.55,29.82C297.89,606.68,344.32,594.06,330.73,556.21Z" transform="translate(-90.77 -243.52)"/>
    <path id="Right_under_eye" data-name="Right under eye" class="cls-18" d="M445.12,571.12l22.66-8S468.91,609,504,605.54C504,605.54,459.85,653.71,445.12,571.12Z" transform="translate(-90.77 -243.52)"/>
    <path id="Left_eyebrow" data-name="Left eyebrow" class="cls-18" d="M344.32,512.62s49.84,1.15,18.12,43.59C362.44,556.21,307,564.24,344.32,512.62Z" transform="translate(-90.77 -243.52)"/>
    <path id="Right_eyebrow" data-name="Right eyebrow" class="cls-18" d="M445.12,519.51s22.66,22.24,39.64,15.13c0,0-27.18,39.68-44.17,22C440.59,556.66,427,540.15,445.12,519.51Z" transform="translate(-90.77 -243.52)"/>
    <path id="Right_eye" data-name="Right eye" class="cls-19" d="M484.76,575.71s15.86,12,7.93-14.52c0,0,16.63-15.26,22.57,13.79a12.27,12.27,0,0,1-2.79,10.56C506.37,592.43,494,601.42,484.76,575.71Z" transform="translate(-90.77 -243.52)"/>
    <path id="Left_eye" data-name="Left eye" class="cls-19" d="M305.65,556.21s-31.23,17.57,0,35.09c0,0,10.47,2.53,17.78-16.28C323.43,575,299,583.5,305.65,556.21Z" transform="translate(-90.77 -243.52)"/>
    <path class="cls-1" d="M430.92,921c-18-.81-36.32-1.59-54.08,2.19-3,.63-13.47,1.39-12.59,6.29.93,5.12,10.95,6.77,14.94,7.33,9.25,1.3,18.64,1.86,27.93,2.75,4.51.43,9,.78,13.54,1.29-.68-.08,3.66.28,4,.69l.06,3.4q1.76,4.14-1.88,3.67c-2,1-5.47.78-7.74,1.1l-30,4.26c-4.78.68-10.12,1.76-8.48,7.87,1.74,6.47,9.41,9.5,15.36,10.45,10.1,1.61,20.24-1.44,30.36.13,1.08.16,1.54-1.49.45-1.66-7.75-1.2-15.33.14-23.1.29a36,36,0,0,1-10.89-1.2,22.36,22.36,0,0,1-5.15-2.21c-2-1.22-6.6-5-5.64-7.93,1.54-4.72,9.5-4.36,13.35-4.91l13.55-1.92,12.57-1.79c3-.43,8.29-.1,10.82-2.12s1.73-5.63-.36-7.55c-4.05-3.73-12.91-2.83-17.91-3.3-8.71-.84-17.42-1.64-26.12-2.5a45.48,45.48,0,0,1-12-2.31c-2.3-.89-4.06-1.3-4.17-4s.13-2.05,2.46-2.73c1.17-.34,2.34-.65,3.52-1,18.67-4.67,38.13-3.8,57.18-2.95,1.11,0,1.1-1.66,0-1.71Z" transform="translate(-90.77 -243.52)"/>
  </g>
</svg>
