<svg id="chico" xmlns="http://www.w3.org/2000/svg" viewBox="0 0 1000 1000">
  <defs>
    <style>
      .cls-1 {
        fill: #f9b4a5;
      }

      .cls-2 {
        fill: #381e1a;
      }

      .cls-3 {
        fill: #57251d;
      }

      .cls-4, .cls-6 {
        fill: none;
      }

      .cls-4, .cls-6, .cls-8 {
        stroke: #db9c94;
      }

      .cls-12, .cls-4, .cls-6, .cls-8 {
        stroke-miterlimit: 10;
      }

      .cls-4 {
        stroke-width: 2.33px;
      }

      .cls-12, .cls-5 {
        fill: #fff;
      }

      .cls-12, .cls-6, .cls-8 {
        stroke-width: 0.78px;
      }

      .cls-7 {
        fill: #cb887f;
      }

      .cls-8 {
        fill: #e699a3;
      }

      .cls-9 {
        fill: #f7f6fa;
      }

      .cls-10 {
        fill: #dcdcdd;
      }

      .cls-10, .cls-11 {
        opacity: 0.54;
      }

      .cls-11 {
        fill: #bfbfc1;
      }

      .cls-12 {
        stroke: #68403c;
      }
    </style>
  </defs>
  <title>evan-illustration</title>
  <g id="Evan">
    <path class="cls-1" d="M587,489.89,544.1,523.74s-56.42,134.44,120,220.87l20.4,54,42-55.22s61.22,9.6,96-66c0,0,32.41-50.42,27.61-67.22S587,489.89,587,489.89Z"/>
    <path class="cls-1" d="M624.46,398.28s-68-36.09-73.57,9.71c0,0-12.49,95.78,36.09,81.9l11.11,6.94s-15.27,93,30.54,133.26c0,0,61.07,90.23,115.21,94.39,0,0,19.43,8.33,45.81-20.82l77.73-115.21s20.82-36.09,22.21-73.57l8.33-136L768.82,269.18l-111,9.72Z"/>
    <path class="cls-2" d="M576.3,400.06s17.47,15.62,25,8.05c0,0,.37,46,9.69,57.66,0,0,9.51,6.94,16.49-46.6l31.38-20.31-.28-61.93s50.32-31.86,68.89-21c0,0,81.51,30.34,87.7,19.51,0,0,69.7,80.46,77.44,61.89s-.81,58.89-.81,58.89,42.53-91.38,3.84-147.09c0,0-91.82-112.77-173.82-97.63,0,0-72.25,9.41-112.49,100.72C609.37,312.19,585,351.75,576.3,400.06Z"/>
    <path class="cls-3" d="M690,424.31l37.28,5.08s55.08,33.89,64.4,24.57c0,0-18.64-22-40.68-29.65C751,424.31,705.22,413.29,690,424.31Z"/>
    <path class="cls-3" d="M829.76,466.65S864.27,469,868,476c0,0,12.59,7.93,15.86,18.65,0,0-2.33-16.78-10.73-29.84C873.13,464.79,848.88,459.19,829.76,466.65Z"/>
    <path class="cls-4" d="M782.84,495c-.82,13.88,2.45,44.08-10.61,40s-21.23,11.43-18,18,31.84-6.53,26.94,10.61c0,0,11.43,19.6,23.67.82,0,0,1.64-15.51,13.88-8.16,0,0,17.15-4.08-3.26-21.23,0,0-8.17-19.59-4.09-36.74"/>
    <path class="cls-5" d="M709.63,453.08s21.59,39.29,67.15,21.37C776.78,474.45,753.89,434.51,709.63,453.08Z"/>
    <ellipse class="cls-3" cx="743.53" cy="463.06" rx="14.6" ry="12.95"/>
    <ellipse cx="742.92" cy="463.22" rx="9.21" ry="8.17"/>
    <path class="cls-6" d="M708.08,452.09s16.75,37.79,71.28,23.44C779.36,475.53,758.31,435.35,708.08,452.09Z"/>
    <path class="cls-5" d="M818.71,477.17S837,523.5,879.53,501.29C879.53,501.29,872.38,466.45,818.71,477.17Z"/>
    <ellipse class="cls-3" cx="851.69" cy="491.74" rx="14.75" ry="13.08"/>
    <ellipse cx="851.44" cy="491.68" rx="9.21" ry="8.17"/>
    <path class="cls-6" d="M818.71,477.17s49.45-12.65,60.82,24.12C879.53,501.29,843.88,527.19,818.71,477.17Z"/>
    <path class="cls-7" d="M773.88,470.57s-3.26,3.07-2.11,4.8,6.82.16,6.82.16Z"/>
    <path class="cls-7" d="M824.27,483s3.55-2.73,2.57-4.56-6.77-.84-6.77-.84Z"/>
    <path class="cls-8" d="M687.36,562.36s92.19,52.16,142.54,44.28c0,0-28.51,71-102.51,22.44C727.39,629.08,693.42,620,687.36,562.36Z"/>
    <path class="cls-9" d="M569.72,508.68,563.9,528c-5,0-9.06,2.65-12.72,1.27-10.11-3.79-10.9,2.72-8.2,29.43.12,1.1-.28-6.73.16,8.26.6,20.17,131.05,148.29,145.42,212.74a5.23,5.23,0,0,0,9.67,1.33l26.45-47.37A5.2,5.2,0,0,1,729,731c14.59-.62,82.12-9.52,124.44-119.17a5.27,5.27,0,0,1,2.32-2.69c8.26-4.68,45.13-21.31,69.48,38.08a5.43,5.43,0,0,0,1.27,1.9c5.39,5.07,36,40-6.84,147.27q-2,5.05-4.26,10.34c-40.12,94.48-18.23,42.88-4.92,11.51a5.23,5.23,0,0,1,10,1.22c3.56,23.3,12.63,60.2,35,70.41a5.11,5.11,0,0,1,2.9,4.76l-1.47,99a5.26,5.26,0,0,1-5.17,5.17L800,1001a5.24,5.24,0,0,1-4.39-8.23h0c3.77-5.46-4-11.44-8.29-6.42l-9.71,11.26a5.24,5.24,0,0,1-4,1.82H458.83a5.25,5.25,0,0,1-5.19-4.46l-4.37-28.66c-1-6.41-10.43-5.69-10.43.8v25.35a5.25,5.25,0,0,1-5.25,5.25h-381a5.25,5.25,0,0,1-5-6.81l95.38-306.32S187.51,526.76,293.84,516a7.38,7.38,0,0,1,.94,0l176.33,10a5.21,5.21,0,0,0,5.54-5.05c.47-17.73,17-38.14,80.21-30.24C563.72,491.53,581.73,495.82,569.72,508.68Z"/>
    <path class="cls-10" d="M208.84,722.08s73.57,157.18,178.92,200.65C387.76,922.73,208.84,743.81,208.84,722.08Z"/>
    <path class="cls-10" d="M243.31,673.34S316.88,830.52,422.23,874C422.23,874,243.31,695.08,243.31,673.34Z"/>
    <path class="cls-10" d="M445.55,754.58S368.94,598.85,262.78,557.43C262.78,557.43,445.13,732.84,445.55,754.58Z"/>
    <path class="cls-11" d="M152.88,840.61l33.28,155.7-46.36,3.57S141,856.06,152.88,840.61Z"/>
    <path class="cls-11" d="M739.53,770.59s-77.8,77.81-80.06,101.48C659.47,872.07,735,793.15,739.53,770.59Z"/>
    <path class="cls-11" d="M910.77,846l-76.1,138.48S922,879.65,910.77,846Z"/>
    <path class="cls-11" d="M910.77,928.3,872.1,983.19S918.26,973.21,910.77,928.3Z"/>
    <path class="cls-11" d="M939.47,968.22,917,991.92S939.47,994.42,939.47,968.22Z"/>
    <path class="cls-12" d="M700.77,583.08s86.31,40.22,108.1,36c16.23-3.12-5,9.12-17,15.58A19.47,19.47,0,0,1,777,636.26C755.82,630,698.72,610.39,700.77,583.08Z"/>
  </g>
</svg>
