<svg id="Layer_2" data-name="Layer 2" xmlns="http://www.w3.org/2000/svg" xmlns:xlink="http://www.w3.org/1999/xlink" viewBox="0 0 1000 1000">
  <defs>
    <style>
      .cls-1, .cls-3 {
        fill: #f2d57e;
      }

      .cls-1, .cls-18 {
        stroke: #fff;
      }

      .cls-1, .cls-11, .cls-13, .cls-17, .cls-18, .cls-9 {
        stroke-miterlimit: 10;
      }

      .cls-11, .cls-18, .cls-2, .cls-9 {
        fill: none;
      }

      .cls-4 {
        clip-path: url(#clip-path);
      }

      .cls-5 {
        clip-path: url(#clip-path-2);
      }

      .cls-6 {
        fill: #f9b4a5;
      }

      .cls-7 {
        fill: #381e1a;
      }

      .cls-8 {
        fill: #57251d;
      }

      .cls-11, .cls-13, .cls-9 {
        stroke: #db9c94;
      }

      .cls-9 {
        stroke-width: 2.35px;
      }

      .cls-10, .cls-17 {
        fill: #fff;
      }

      .cls-11, .cls-13, .cls-17 {
        stroke-width: 0.78px;
      }

      .cls-12 {
        fill: #cb887f;
      }

      .cls-13 {
        fill: #e699a3;
      }

      .cls-14 {
        fill: #f7f6fa;
      }

      .cls-15 {
        fill: #dcdcdd;
      }

      .cls-15, .cls-16 {
        opacity: 0.54;
      }

      .cls-16 {
        fill: #bfbfc1;
      }

      .cls-17 {
        stroke: #68403c;
      }
    </style>
    <clipPath id="clip-path">
      <circle class="cls-1" cx="500" cy="500" r="443.75"/>
    </clipPath>
    <clipPath id="clip-path-2">
      <rect class="cls-2" width="1000" height="1000"/>
    </clipPath>
  </defs>
  <title>illustrator-circle-container</title>
  <g>
    <circle class="cls-3" cx="500" cy="500" r="443.75"/>
    <g class="cls-4">
      <g class="cls-5">
        <g id="Evan">
          <path class="cls-6" d="M411.49,453.41l-43.41,34.26S311,623.74,489.57,711.22l20.65,54.67L552.75,710s62,9.72,97.19-66.82c0,0,32.8-51,27.94-68S411.49,453.41,411.49,453.41Z"/>
          <path class="cls-6" d="M449.42,360.69s-68.84-36.53-74.46,9.83c0,0-12.65,96.94,36.53,82.89l11.23,7s-15.45,94.13,30.91,134.87c0,0,61.82,91.32,116.61,95.53,0,0,19.67,8.43,46.36-21.07l78.67-116.61s21.08-36.53,22.48-74.46L726.18,341,595.53,230l-112.4,9.84Z"/>
          <path class="cls-7" d="M400.67,362.5s17.69,15.8,25.34,8.15c0,0,.37,46.55,9.82,58.35,0,0,9.62,7,16.69-47.16l31.75-20.56L484,298.6s50.92-32.25,69.72-21.28c0,0,82.49,30.7,88.76,19.74,0,0,70.55,81.44,78.38,62.64s-.82,59.61-.82,59.61,43.05-92.49,3.89-148.88c0,0-92.93-114.13-175.93-98.81,0,0-73.12,9.53-113.85,101.94C434.14,273.56,409.49,313.6,400.67,362.5Z"/>
          <path class="cls-8" d="M515.71,387l37.74,5.15s55.74,34.3,65.17,24.87c0,0-18.86-22.3-41.16-30C577.46,387,531.15,375.88,515.71,387Z"/>
          <path class="cls-8" d="M657.2,429.89s34.93,2.36,38.7,9.44c0,0,12.75,8,16.05,18.88,0,0-2.36-17-10.86-30.2C701.09,428,676.55,422.34,657.2,429.89Z"/>
          <path class="cls-9" d="M609.71,458.61c-.82,14.05,2.48,44.62-10.74,40.49s-21.48,11.57-18.18,18.18S613,510.67,608.06,528c0,0,11.57,19.83,24,.82,0,0,1.65-15.69,14.05-8.26,0,0,17.35-4.13-3.31-21.48,0,0-8.26-19.83-4.13-37.18"/>
          <path class="cls-10" d="M535.61,416.15s21.86,39.78,68,21.64C603.58,437.79,580.41,397.36,535.61,416.15Z"/>
          <ellipse class="cls-8" cx="569.92" cy="426.26" rx="14.78" ry="13.11"/>
          <ellipse cx="569.3" cy="426.41" rx="9.32" ry="8.26"/>
          <path class="cls-11" d="M534.05,415.16s17,38.25,72.14,23.72C606.19,438.88,584.89,398.21,534.05,415.16Z"/>
          <path class="cls-10" d="M646,440.54s18.53,46.89,61.55,24.41C707.57,465,700.34,429.69,646,440.54Z"/>
          <ellipse class="cls-8" cx="679.4" cy="455.28" rx="14.92" ry="13.23"/>
          <ellipse cx="679.14" cy="455.22" rx="9.32" ry="8.26"/>
          <path class="cls-11" d="M646,440.54s50-12.81,61.55,24.41C707.57,465,671.49,491.16,646,440.54Z"/>
          <path class="cls-12" d="M600.64,433.86s-3.3,3.11-2.13,4.85,6.9.17,6.9.17Z"/>
          <path class="cls-12" d="M651.64,446.43s3.59-2.76,2.61-4.61-6.86-.86-6.86-.86Z"/>
          <path class="cls-13" d="M513.07,526.76s93.31,52.79,144.27,44.81c0,0-28.85,71.83-103.75,22.72C553.59,594.29,519.21,585.08,513.07,526.76Z"/>
          <path class="cls-14" d="M394,472.43,388.12,492c-5.08,0-9.16,2.68-12.87,1.29-10.23-3.83-11,2.75-8.3,29.78.12,1.12-.28-6.8.16,8.37.6,20.41,132.64,150.08,147.18,215.31a5.3,5.3,0,0,0,9.79,1.35l26.76-47.94a5.27,5.27,0,0,1,4.38-2.72c14.76-.62,83.12-9.64,125.94-120.61a5.41,5.41,0,0,1,2.35-2.73c8.37-4.74,45.68-21.56,70.32,38.54a5.5,5.5,0,0,0,1.29,1.93c5.46,5.13,36.4,40.44-6.92,149q-2,5.11-4.31,10.47c-40.61,95.62-18.45,43.39-5,11.64A5.3,5.3,0,0,1,749,787c3.6,23.58,12.78,60.93,35.4,71.26a5.19,5.19,0,0,1,2.94,4.82l-1.5,100.2a5.31,5.31,0,0,1-5.23,5.23l-153.55,2.23a5.32,5.32,0,0,1-4.45-8.34h0c3.83-5.52-4-11.57-8.38-6.49l-9.83,11.39a5.31,5.31,0,0,1-4,1.84H281.78a5.3,5.3,0,0,1-5.25-4.51l-4.43-29c-1-6.49-10.56-5.76-10.56.8v25.66a5.3,5.3,0,0,1-5.31,5.31H-129.43a5.31,5.31,0,0,1-5.07-6.89l96.54-310S7.18,490.72,114.8,479.85a6,6,0,0,1,1,0l178.46,10.1a5.29,5.29,0,0,0,5.61-5.11c.48-17.95,17.23-38.61,81.18-30.61C387.94,455.08,406.16,459.41,394,472.43Z"/>
          <path class="cls-15" d="M28.76,688.41s74.47,159.08,181.09,203.08C209.85,891.49,28.76,710.41,28.76,688.41Z"/>
          <path class="cls-15" d="M63.65,639.09s74.46,159.08,181.08,203.08C244.73,842.17,63.65,661.09,63.65,639.09Z"/>
          <path class="cls-15" d="M268.34,721.3s-77.53-157.61-185-199.54C83.35,521.76,267.91,699.31,268.34,721.3Z"/>
          <path class="cls-16" d="M-27.88,808.38,5.81,966l-46.92,3.61S-39.91,824-27.88,808.38Z"/>
          <path class="cls-16" d="M565.88,737.51s-78.75,78.75-81,102.71C484.85,840.22,561.31,760.34,565.88,737.51Z"/>
          <path class="cls-16" d="M739.19,813.79l-77,140.15S750.56,847.88,739.19,813.79Z"/>
          <path class="cls-16" d="M739.19,897.13l-39.14,55.55S746.77,942.58,739.19,897.13Z"/>
          <path class="cls-16" d="M768.23,937.53l-22.72,24S768.23,964.05,768.23,937.53Z"/>
          <path class="cls-17" d="M526.64,547.73S614,588.44,636.06,584.2c16.42-3.16-5.1,9.23-17.17,15.77a19.73,19.73,0,0,1-15,1.58C582.36,595.17,524.57,575.37,526.64,547.73Z"/>
        </g>
      </g>
    </g>
    <circle class="cls-18" cx="500" cy="500" r="443.75"/>
  </g>
</svg>
