<svg id="Layer_1" data-name="Layer 1" xmlns="http://www.w3.org/2000/svg" xmlns:xlink="http://www.w3.org/1999/xlink" viewBox="0 0 1014.23 292.27">
  <defs>
    <style>
      .cls-1, .cls-4 {
        fill: #da692d;
      }

      .cls-1, .cls-25 {
        stroke: #069dbf;
        stroke-miterlimit: 10;
        stroke-width: 12.21px;
      }

      .cls-2 {
        font-size: 150px;
      }

      .cls-2, .cls-3 {
        fill: #fff;
        font-family: ShortStack, Short Stack;
      }

      .cls-3 {
        font-size: 100px;
      }

      .cls-5 {
        clip-path: url(#clip-path);
      }

      .cls-6 {
        fill: #231005;
      }

      .cls-7 {
        fill: #fffcf5;
      }

      .cls-8 {
        fill: #e8e5e0;
      }

      .cls-22, .cls-9 {
        opacity: 0.81;
      }

      .cls-9 {
        fill: url(#linear-gradient);
      }

      .cls-10 {
        fill: #fcffd6;
      }

      .cls-11 {
        fill: #0e0700;
      }

      .cls-12 {
        fill: #fcc2dd;
      }

      .cls-13 {
        fill: #fffdef;
      }

      .cls-14 {
        fill: #fffdc0;
      }

      .cls-15 {
        fill: #f9eec6;
      }

      .cls-16 {
        fill: #868077;
      }

      .cls-17 {
        fill: #534b3f;
      }

      .cls-18 {
        fill: #30281c;
      }

      .cls-19 {
        fill: #280904;
      }

      .cls-20 {
        fill: #965431;
      }

      .cls-21 {
        fill: #4a2b0f;
      }

      .cls-22 {
        fill: url(#linear-gradient-2);
      }

      .cls-23 {
        fill: #fff2d0;
      }

      .cls-24 {
        fill: #120600;
      }

      .cls-25 {
        fill: none;
      }
    </style>
    <clipPath id="clip-path" transform="translate(-20.28 -50.24)">
      <circle class="cls-1" cx="166.42" cy="196.37" r="140.03"/>
    </clipPath>
    <linearGradient id="linear-gradient" x1="120.97" y1="206.23" x2="148.85" y2="206.23" gradientUnits="userSpaceOnUse">
      <stop offset="0" stop-color="#fff"/>
      <stop offset="0.03" stop-color="#f9e0a8"/>
      <stop offset="1" stop-color="#302525"/>
    </linearGradient>
    <linearGradient id="linear-gradient-2" x1="1128.34" y1="204.98" x2="1156.21" y2="204.98" gradientTransform="matrix(-1, 0, 0, 1, 1333.59, 0)" xlink:href="#linear-gradient"/>
  </defs>
  <title>logo</title>
  <text class="cls-2" transform="translate(351.27 146.13)">CHICO’S</text>
  <text class="cls-3" transform="translate(333.28 244.19)">ADVENTURES</text>
  <g id="CHICO">
    <circle class="cls-4" cx="146.13" cy="146.13" r="140.03"/>
    <g class="cls-5">
      <g id="Chico-2" data-name="Chico">
        <path id="back" class="cls-6" d="M117.66,337.08s-14.39-37.64-41.79-55.46l8.22-7.53s-8.22-7.54-8.22,0c0,0-.68-14.39-10.27-15.07l12.33-6.17s-16.44-.68-1.37-15.07c0,0,5.48-7.53-11-6.16l15.07-11s-8.91-5.75-4.11-6.3c0,0-4.8-9.46-11-12.88l8.22-3.43s-3.43-6.16,6.16-6.85c0,0,.69-6.16-6.16-6.16,0,0-11.65-13.7-3.43-13,0,0-6.85-8.22,0-8.9,0,0-5-6.23.35-9.8,0,0-1-2.3-6.39-4.09,0,0,.26-4.35,4.6-3.84,0,0-7.92.26-.51-7.92,0,0,16.62,2,7.16-27.87,0,0,20.21-15.85,42.06,7.42l1.65-6.14s4.86,2.05,6.9,9.2l1-14.06a32,32,0,0,1,7.92,25.82,27.67,27.67,0,0,1,19.68-1s12.53-8.44,33.24,2.05L186,123.41l5.11.25s-2.75-18.4,11-5.11a14.28,14.28,0,0,0,11.22-1.79s40.9-17.13,40.9,12.53c0,0-8.68,16,6.19,17.26,0,0-8.49,10.62-3,17.42,0,0,1.7,19.54-10.62,18.27,0,0-3.83,11.89,3.82,14.44,0,0,5.52,3.83-7.22,3.4,0,0,11.47,9.38,15.29,20.62l-5.1,4.45,3.83,2.55-6.37,1.7s-1.7,4.67,9.34,3l-3.4,4.68s13.6,1.7,13.6-3c0,0,2.12,23.37-12.75,22.95l10.63,6.79,5.09,5.1v5.95l3,6.37s.85,8.08,6.8,8.08l2.12,6.37s16.57,1.27,26.77,11.47c0,0,0-8.5,11,8.07,0,0,3.4-14.44,12.33,12.75a6.44,6.44,0,0,1,6.79,5.95s6.38-.48,4.25,3.16Z" transform="translate(-20.28 -50.24)"/>
        <path id="white_mouth" data-name="white mouth" class="cls-7" d="M149.32,223.63s-7.08-11.14-14.95,4.61c0,0,6.29,12.77-2,13.27,0,0,3.54,6.4-6.69,5.62,0,0-5.9,9.83,4.33,13,0,0-15.34-8.26-19.27-7.87,0,0-1.58-8.26-10.62,0,0,0-1.18,13.37,11.4,13,0,0,20.45,33.42,37.76,33.82,0,0,17.3-14.16,24.77-6.29a16.65,16.65,0,0,0,6.69-4.72s18.09-2,16.51-15.34c0,0,19.05-31.07,28-27.13,0,0-1.49-7.15-20.65,4.48,0,0,13.49-10.78-1.85-4.48L190.61,257s18.09-17.3-4.72-25.56c0,0-6.69-14.44-17.3-10.76C168.59,220.64,162.69,226.09,149.32,223.63Z" transform="translate(-20.28 -50.24)"/>
        <path id="tag" class="cls-8" d="M147.87,305.57h24.38a4.49,4.49,0,0,1,4.49,4.49v10.41a4.47,4.47,0,0,1-1.26,3.11l-11,11.39a4.47,4.47,0,0,1-5.92.48l-12.48-9.36a4.43,4.43,0,0,1-1.78-3.25l-.93-12.45A4.48,4.48,0,0,1,147.87,305.57Z" transform="translate(-20.28 -50.24)"/>
        <path class="cls-9" d="M124.27,195.49s-12.09,19.07,10,21.78c0,0,13.21,2.09,14.55-10.56C148.85,206.71,138.1,192.44,124.27,195.49Z" transform="translate(-20.28 -50.24)"/>
        <path id="left_ear" data-name="left ear" class="cls-10" d="M86.94,175.29s2.87-8.15,18.21-3.84c0,0-.48-5.87,10.55-1.26L109,162.72,115.7,160l-1.92-8.63a54.51,54.51,0,0,0-7.09-5.54c-1.92-1.2-3.88-2.12-5.37-2.12,0,0-8.15-9.11-9.11-3.36,0,0-10.54,8.15-2.4,21.09Z" transform="translate(-20.28 -50.24)"/>
        <path id="right_ear" data-name="right ear" class="cls-10" d="M210.65,169.06s23.91-.48,27.27-6.71c0,0,5.32-17.74-13.64-15.82,0,0-21.83-3.5-15.6,11.19Z" transform="translate(-20.28 -50.24)"/>
        <path id="mouth_back" data-name="mouth back" class="cls-11" d="M131.51,252.45s8.63,9.59,17.74,2.4c0,0,31.63,2.37,36.42-4.81,0,0-11,38.36-27.08,35C158.59,285.05,143.49,289.36,131.51,252.45Z" transform="translate(-20.28 -50.24)"/>
        <path id="tongue" class="cls-12" d="M149.73,258.21s4.31,8.14,10.06,2.87c0,0,4.79-3,8.63-.55l5.75-2.32S168.9,279.77,162,277.86c0,0-10.79,8.14-20.37-16.78Z" transform="translate(-20.28 -50.24)"/>
        <path id="white_tongue" data-name="white tongue" class="cls-13" d="M168.9,260.6s1.65-4.45,5.23-2.19c0,0-4.71,27.88-16.2,20.91C157.93,279.32,173.46,273.72,168.9,260.6Z" transform="translate(-20.28 -50.24)"/>
        <path id="left_cheek" data-name="left cheek" class="cls-14" d="M104.56,208c1.07-1.33,5-5.79,7.41-2.56a4.47,4.47,0,0,1,.33,4.67c-2.1,4.21-6.7,14.81-1.42,17.56a4.56,4.56,0,0,1,2.47,4.49c-.35,3.39-2.25,7.21-10,3.24a4.72,4.72,0,0,1-.91-.62c-2.49-2.19-13.81-13.47,1.43-26.09A4.92,4.92,0,0,0,104.56,208Z" transform="translate(-20.28 -50.24)"/>
        <path id="right_cheek" data-name="right cheek" class="cls-15" d="M206.44,229.37s3.55-2.75,4.15-8.84a5.3,5.3,0,0,1,3.2-4.41c4.6-1.93,12.52-3.23,11.4,11.46,0,0-11.38,18.31-18.75,12.95C206.44,240.53,202.42,231.38,206.44,229.37Z" transform="translate(-20.28 -50.24)"/>
        <path class="cls-16" d="M185,246.17a7.06,7.06,0,0,1,6.27,3.87S192.94,240.73,185,246.17Z" transform="translate(-20.28 -50.24)"/>
        <path class="cls-17" d="M136.29,274.6s-10.38-6.23,0,6.22C136.29,280.82,139.4,281.34,136.29,274.6Z" transform="translate(-20.28 -50.24)"/>
        <path class="cls-17" d="M119.68,252.28s6.35,10.9,12,9.86c0,0,0-5.19-6-9.86Z" transform="translate(-20.28 -50.24)"/>
        <path class="cls-18" d="M179.45,273s-6.14,9.64-1.27,9.64,3.17-3.6,3.17-3.6l3.65,1.75s1.95,1.37,0-3.89c0,0-3-6.33,5.24-8.65C190.24,268.29,188.76,260,179.45,273Z" transform="translate(-20.28 -50.24)"/>
        <path id="backnose" class="cls-19" d="M154.73,250s-23.46-23.28,3.83-22.32c0,0,23.94-5.15,4.31,22.32C162.87,250,158.93,254.88,154.73,250Z" transform="translate(-20.28 -50.24)"/>
        <path class="cls-20" d="M150.09,231.48c1.59-.77,3.95-1.49,5.93-.34a3.44,3.44,0,0,0,3.55-.16c2.1-1.32,5.4-2.46,7.65,1.2a3.2,3.2,0,0,1,.36.85c.69,2.44.41,13.76-5.71,18a7.76,7.76,0,0,1-2.27,1.2c-2.87-.17-12.46-3.9-11.52-17.71A3.58,3.58,0,0,1,150.09,231.48Z" transform="translate(-20.28 -50.24)"/>
        <path class="cls-21" d="M149.68,236.24s7.64,1.22,1.39,4c0,0-.64,2.43,2.46,1.74C153.53,242,159.23,232.6,149.68,236.24Z" transform="translate(-20.28 -50.24)"/>
        <path class="cls-21" d="M165.14,235.4s-3.48,2.06,0,5.53c0,0-5.73,2.83-3.3-5.53C161.84,235.4,164.1,233.17,165.14,235.4Z" transform="translate(-20.28 -50.24)"/>
        <path class="cls-22" d="M202,194.24s12.1,19.07-10,21.78c0,0-13.22,2.09-14.56-10.56C177.37,205.46,188.13,191.19,202,194.24Z" transform="translate(-20.28 -50.24)"/>
        <path class="cls-23" d="M139,200.37l9.86,6.34s-2.46,15.14-20.08,9.16C128.77,215.87,143.21,212,139,200.37Z" transform="translate(-20.28 -50.24)"/>
        <path id="Right_under_eye" data-name="Right under eye" class="cls-23" d="M174.57,204.94l7-2.46s.36,14.09,11.28,13C192.89,215.51,179.15,230.31,174.57,204.94Z" transform="translate(-20.28 -50.24)"/>
        <path id="Left_eyebrow" data-name="Left eyebrow" class="cls-23" d="M143.21,187s15.51.35,5.64,13.39C148.85,200.37,131.59,202.83,143.21,187Z" transform="translate(-20.28 -50.24)"/>
        <path id="Right_eyebrow" data-name="Right eyebrow" class="cls-23" d="M174.57,189.09s7,6.83,12.33,4.65c0,0-8.46,12.19-13.74,6.76C173.16,200.5,168.93,195.43,174.57,189.09Z" transform="translate(-20.28 -50.24)"/>
        <path id="Right_eye" data-name="Right eye" class="cls-24" d="M186.9,206.35s4.93,3.7,2.46-4.46c0,0,5.18-4.68,7,4.24a3.75,3.75,0,0,1-.86,3.24C193.62,211.49,189.77,214.25,186.9,206.35Z" transform="translate(-20.28 -50.24)"/>
        <path id="Left_eye" data-name="Left eye" class="cls-24" d="M131.19,200.37s-9.72,5.39,0,10.77c0,0,3.25.78,5.53-5C136.72,206.14,129.11,208.75,131.19,200.37Z" transform="translate(-20.28 -50.24)"/>
        <path class="cls-6" d="M170.15,312.4a81.08,81.08,0,0,0-13.85.18c-1.24.16-6.36.29-6.91,2-1,3.14,11.65,3.35,12.67,3.45a14.75,14.75,0,0,1,3.27.31c6.6,2.36,2.34,2.53.7,2.76l-6.62.92c-1.69.24-5.75-.2-6.24,2.1-1.22,5.72,12.41,3.85,14.38,4.07.34,0,.33-.49,0-.53-3-.34-7.45,1.1-10.28-.21q-4.85-4.62-.66-4.5l2.2-.31,5.15-.72c1.27-.18,7.32,0,5.51-2.9-.56-.9-1.6-.86-2.51-1.06-3.67-.79-7.7-.65-11.44-1.08a14.41,14.41,0,0,1-3.39-.58l-.21-2.36c.74-1.17,6.32-1.05,7.46-1.12a101.81,101.81,0,0,1,10.77.1c.34,0,.34-.52,0-.53Z" transform="translate(-20.28 -50.24)"/>
      </g>
    </g>
    <circle class="cls-25" cx="146.13" cy="146.13" r="140.03"/>
  </g>
</svg>
