<svg id="Layer_1" data-name="Layer 1" xmlns="http://www.w3.org/2000/svg" viewBox="0 0 463.27 807.46">
  <defs>
    <style>
      .cls-1, .cls-2 {
        fill: #fff;
        stroke: #fff;
      }

      .cls-1 {
        stroke-miterlimit: 10;
        stroke-width: 0.88px;
      }

      .cls-2 {
        stroke-linecap: round;
        stroke-linejoin: round;
        stroke-width: 1.75px;
      }
    </style>
  </defs>
  <title>pawPrints</title>
  <g>
    <path class="cls-1" d="M432.63,804.82c-2.58.36-4-1.43-5.86-2.16-1.7-.68-3.65-2-5.23-.11-3.2,3.83-7,6.28-12.1,6.66-4.32.31-8.55,1.93-12.94.77-11.61-3.07-21.29-8.57-27.46-19.58-2.47-4.42-4.54-8.77-5.21-13.71-.78-5.83-1.11-11.88,1.76-17.12,4.19-7.65,9.12-14.89,13.77-22.29a14.59,14.59,0,0,1,4.37-4.85c4-2.49,6.81-6.33,10.54-9.17,5.55-4.22,11.1-8.15,18.15-9.46-.39-1.33-2,.32-2.53-1.49,5.89-1.78,12-.12,17.88-1.09-5.82-1.26-11.75-.84-17.61-1.28-3.44-.27-6.71,1.11-9.43,2.58a68.52,68.52,0,0,0-24.65,21.73c-3.92,5.73-8.17,11.27-12.26,16.89a32.75,32.75,0,0,0-6.32,25.13c.93,5.86,2.35,11.85,5.71,17.28,3.11,5.05,6.63,9.83,11.21,13.17,4.93,3.6,9.93,8.15,17,7.51a3.34,3.34,0,0,1,2.67,1.29c2.6,2.65,5.76,2.36,9,1.5,1.55-.41,3.07-1.45,4.56-1.38,5,.23,8.62-2.49,12.11-5.23,2.93-2.3,5.43-2.5,8.8-1,5.5,2.36,11.65,3.8,17.39,3.24a29.77,29.77,0,0,0,22.84-13.82c3.05-4.76,5.74-9.78,8.39-14.78,1.15-2.17,2.4-4.53,2-7.07-.6-3.81-.16-7.56.07-11.34A39,39,0,0,0,473.57,743c-4.64-7.88-11.66-12.88-19.24-17.35-2.76-1.63-5.4-3.66-8.91-3.77a143.53,143.53,0,0,1,18.41,12c6.1,4.79,9.63,11.41,11.95,18.91a36.22,36.22,0,0,1,.15,22c-4.24,12.94-13.35,28.61-22.49,29.46.22-1.86,3.18-1.34,3.25-4.18-7.77,4.54-15.63,5.09-23.91,3.21Zm-47-109.5a6.14,6.14,0,0,1,.3,1.38c-.64,4.91-1.47,9.13-6.39,12.51-5.11,3.5-9.59,5.94-15.92,4.68-5.54-1.11-10-4-14.13-7.37-4-3.2-8.15-7.12-9.4-11.8-2-7.6-5-15.4-2.16-24.07-2.3,1.87-1,4.63-3.24,6.58a22.58,22.58,0,0,1,2.5-12.24c-1.89.76-2.76,1.84-2.83,2.88-.29,4.42-2.68,8.26-3.26,12.58a12.93,12.93,0,0,0,.3,4.34,56.68,56.68,0,0,0,10.24,22.84c5.86,7.87,14,11.93,23.15,13.74,5,1,10.43.88,14.08-4.06,3.73.19,5-2.83,7.2-5,4.16-4.05,5.34-9.1,5.5-14.21.35-10.6-3.52-19.92-10.38-28-.85-1-1.68-2.08-3.07-2.35-3.15-.59-5.36-2.75-7.93-4.41-7.19-4.64-15-6.23-23.36-3.56-1.33.43-2.75.9-2.81,2.85,6.22-2.47,8.52-3,12.28-2.42,12.92,2.11,24.88,12.92,27.6,26.69-1.83.42-1.12-3.86-3.46-2.23l2.87,12.53ZM438.92,672c.76,3.32-.94,6.13-.78,8.95.31,5.55-3.7,8.87-6.54,12.28-3.45,4.12-12.49,3.61-17.66.79s-8.29-7.28-11.08-12c-2.36-4-4.27-8.91-3.88-13.2.72-7.88,1.44-16.17,7.47-22.92-3,.74-3,3.95-5.31,4.86-.72-1.64,1.35-2.66.56-4.46-3.1,2.63-5.68,5.09-6.66,9.1-2.46,10.06-2.06,19.94,2,29.4,3.51,8.16,9.31,14.58,17.93,17.41,3.45,1.13,7.62,3.27,11.38-.63,2.08,2.19,4.05,1.45,5.93-.46a5.55,5.55,0,0,1,2.21-1.35c4.76-1.56,7.83-5.27,9.78-9.43,3.65-7.79,5-16.08,2.6-25l-.75,2.16c-1.21-2-.71-3.5-.53-5,.3-2.7-.17-6.13-2.53-6.79-2.52-.71-3-2.27-4.09-3.86a26.73,26.73,0,0,0-18-12,7.65,7.65,0,0,0-7,1.82c17.74-3.1,32.13,18.7,27.81,35.17C440.88,675.18,440.54,673.39,438.92,672Zm46.9,6.39c6.62,4.94,8.18,11.78,7.22,19.17-.91,7-4.11,13-11.38,16.91.52-1.76,1.55-2.82.22-4.06-1.4,2.22-3.9,2.94-6,4.2-5.63,3.39-12.47,2.25-17.37-2.17-5.54-5-5.9-13.26-3.56-19.92,1.59-4.54,3.88-8.82,8.8-11.36a65.75,65.75,0,0,1,13.3-5.5c-1.85-.94-3.35.6-4.56-.55.44-1.37,2.41-.36,2.65-1.89a11.1,11.1,0,0,0-10.74.47c-8.29,5-15.11,11.32-17,21.44-2.91,15.64,5.75,28.22,21.7,29.61,10.4.9,27.93-10.23,25.67-23.44a4.87,4.87,0,0,1,.21-1.72c1.48-6.71-.37-12.66-4.07-18.21C489.73,679.52,488.37,678,485.82,678.35ZM347.9,732.25c.67,1.85,1.22,3.65,2,5.36a14,14,0,0,0,2.38,4.29c2,2,3.49,5.7,1.88,6.89-3.09,2.31-4.47,6.07-7.76,8.14-7.08,4.44-15.16,2.59-23-2.24-2.92-1.8-6.45-3.72-7.77-6.85-2.64-6.26-6.85-12.14-5.67-20-1.82,1.86-.39,4-1.89,6a19.47,19.47,0,0,1,.14-10.76c-3.54,2.34-1.45,5.5-2.26,8-1.72,5.28-.13,10,2.33,14.63,1.23,2.33,2.9,4.33,4.33,6.51,5.59,8.5,13.62,12.63,23.49,13.82,2,.25,3.72.09,5-2.14,1.92,2.75,3.66,1.79,5.76.63,4.34-2.41,7.88-5,10.42-9.8a21.51,21.51,0,0,0,2.62-12.84c-.79-7.49-4.36-13.83-9.5-19.29-2.66-2.82-5.49-5.19-9.72-5.21a9.23,9.23,0,0,1-3.69-1.24c-6.8-3.39-13.58-2.61-20.28.16-1.39.58-3.29,1.35-2.94,3.78,12.29-8.74,28.81-3.38,36.71,11.72C349.81,733,349,731.29,347.9,732.25Z" transform="translate(-32.69 -10.6)"/>
    <path class="cls-1" d="M432.63,804.82l.15-1.48c8.28,1.88,16.14,1.33,23.91-3.21-.07,2.84-3,2.32-3.25,4.18,9.14-.85,18.25-16.52,22.49-29.46a36.22,36.22,0,0,0-.15-22c-2.32-7.5-5.85-14.12-11.95-18.91a143.53,143.53,0,0,0-18.41-12c3.51.11,6.15,2.14,8.91,3.77,7.58,4.47,14.6,9.47,19.24,17.35a39,39,0,0,1,5.61,22.56c-.23,3.78-.67,7.53-.07,11.34.39,2.54-.86,4.9-2,7.07-2.65,5-5.34,10-8.39,14.78a29.77,29.77,0,0,1-22.84,13.82c-5.74.56-11.89-.88-17.39-3.24-3.37-1.45-5.87-1.25-8.8,1-3.49,2.74-7.15,5.46-12.11,5.23-1.49-.07-3,1-4.56,1.38-3.2.86-6.36,1.15-9-1.5a3.34,3.34,0,0,0-2.67-1.29c-7,.64-12-3.91-17-7.51-4.58-3.34-8.1-8.12-11.21-13.17-3.36-5.43-4.78-11.42-5.71-17.28a32.75,32.75,0,0,1,6.32-25.13c4.09-5.62,8.34-11.16,12.26-16.89a68.52,68.52,0,0,1,24.65-21.73c2.72-1.47,6-2.85,9.43-2.58,5.86.44,11.79,0,17.61,1.28-5.9,1-12-.69-17.88,1.09.5,1.81,2.14.16,2.53,1.49-7.05,1.31-12.6,5.24-18.15,9.46-3.73,2.84-6.52,6.68-10.54,9.17a14.59,14.59,0,0,0-4.37,4.85c-4.65,7.4-9.58,14.64-13.77,22.29-2.87,5.24-2.54,11.29-1.76,17.12.67,4.94,2.74,9.29,5.21,13.71,6.17,11,15.85,16.51,27.46,19.58,4.39,1.16,8.62-.46,12.94-.77,5.09-.38,8.9-2.83,12.1-6.66,1.58-1.91,3.53-.57,5.23.11C428.62,803.39,430.05,805.18,432.63,804.82Z" transform="translate(-32.69 -10.6)"/>
    <path class="cls-1" d="M385.59,695.32l-2.32,1.91L380.4,684.7c2.34-1.63,1.63,2.65,3.46,2.24-2.72-13.78-14.68-24.59-27.6-26.7-3.76-.61-6.06,0-12.28,2.42.06-1.95,1.48-2.42,2.81-2.85,8.36-2.67,16.17-1.08,23.36,3.56,2.57,1.66,4.78,3.82,7.93,4.41,1.39.27,2.22,1.34,3.07,2.35,6.86,8.06,10.73,17.38,10.38,28-.16,5.11-1.34,10.16-5.5,14.21-2.21,2.16-3.47,5.18-7.2,5-3.65,4.94-9.1,5.05-14.08,4.06-9.18-1.81-17.29-5.87-23.15-13.74a56.68,56.68,0,0,1-10.24-22.84,12.93,12.93,0,0,1-.3-4.34c.58-4.32,3-8.16,3.26-12.58.07-1,.94-2.12,2.83-2.88a22.58,22.58,0,0,0-2.5,12.24c2.2-2,.94-4.71,3.24-6.58-2.85,8.67.14,16.47,2.16,24.07,1.25,4.68,5.44,8.6,9.4,11.8,4.15,3.36,8.59,6.26,14.13,7.37,6.33,1.26,10.81-1.18,15.92-4.68,4.92-3.38,5.75-7.6,6.39-12.51A6.14,6.14,0,0,0,385.59,695.32Z" transform="translate(-32.69 -10.6)"/>
    <path class="cls-1" d="M438.92,672c1.62,1.43,2,3.22,2.88,4.84,4.32-16.47-10.07-38.27-27.81-35.17a7.65,7.65,0,0,1,7-1.82,26.73,26.73,0,0,1,18,12c1.06,1.59,1.57,3.15,4.09,3.86,2.36.66,2.83,4.09,2.53,6.79-.18,1.53-.68,3,.53,5l.75-2.16c2.38,8.91,1.05,17.2-2.6,25-2,4.16-5,7.87-9.78,9.43a5.55,5.55,0,0,0-2.21,1.35c-1.88,1.91-3.85,2.65-5.93.46-3.76,3.9-7.93,1.76-11.38.63-8.62-2.83-14.42-9.25-17.93-17.41-4.08-9.46-4.48-19.34-2-29.4,1-4,3.56-6.47,6.66-9.1.79,1.8-1.28,2.82-.56,4.46,2.35-.91,2.33-4.12,5.31-4.86-6,6.75-6.75,15-7.47,22.92-.39,4.29,1.52,9.22,3.88,13.2,2.79,4.72,6,9.22,11.08,12s14.21,3.33,17.66-.79c2.84-3.41,6.85-6.73,6.54-12.28C438,678.09,439.68,675.28,438.92,672Z" transform="translate(-32.69 -10.6)"/>
    <path class="cls-1" d="M485.82,678.35c2.55-.4,3.91,1.17,5.12,3,3.7,5.55,5.55,11.5,4.07,18.21a4.87,4.87,0,0,0-.21,1.72c2.26,13.21-15.27,24.34-25.67,23.44-15.95-1.39-24.61-14-21.7-29.61,1.88-10.12,8.7-16.42,17-21.44a11.1,11.1,0,0,1,10.74-.47c-.24,1.53-2.21.52-2.65,1.89,1.21,1.15,2.71-.39,4.56.55a65.75,65.75,0,0,0-13.3,5.5c-4.92,2.54-7.21,6.82-8.8,11.36-2.34,6.66-2,14.91,3.56,19.92,4.9,4.42,11.74,5.56,17.37,2.17,2.08-1.26,4.58-2,6-4.2,1.33,1.24.3,2.3-.22,4.06,7.27-3.93,10.47-9.88,11.38-16.91C494,690.13,492.44,683.29,485.82,678.35Z" transform="translate(-32.69 -10.6)"/>
    <path class="cls-1" d="M347.9,732.25c1.07-1,1.91.77,2.6-.43-7.9-15.1-24.42-20.46-36.71-11.72-.35-2.43,1.55-3.2,2.94-3.78,6.7-2.77,13.48-3.55,20.28-.16a9.23,9.23,0,0,0,3.69,1.24c4.23,0,7.06,2.39,9.72,5.21,5.14,5.46,8.71,11.8,9.5,19.29a21.51,21.51,0,0,1-2.62,12.84c-2.54,4.77-6.08,7.39-10.42,9.8-2.1,1.16-3.84,2.12-5.76-.63-1.29,2.23-3,2.39-5,2.14-9.87-1.19-17.9-5.32-23.49-13.82-1.43-2.18-3.1-4.18-4.33-6.51-2.46-4.64-4.05-9.35-2.33-14.63.81-2.5-1.28-5.66,2.26-8a19.47,19.47,0,0,0-.14,10.76c1.5-1.94.07-4.1,1.89-6-1.18,7.81,3,13.69,5.67,20,1.32,3.13,4.85,5,7.77,6.85,7.8,4.83,15.88,6.68,23,2.24,3.29-2.07,4.67-5.83,7.76-8.14,1.61-1.19.08-4.94-1.88-6.89a14,14,0,0,1-2.38-4.29C349.12,735.9,348.57,734.1,347.9,732.25Z" transform="translate(-32.69 -10.6)"/>
    <path class="cls-2" d="M468.34,795.29a55.54,55.54,0,0,0,8.85-19.36,48,48,0,0,0,1.21-11.27c-.14-14.24-5.63-25.7-17.63-33.72-5.07-3.39-10.21-6.67-15.32-10,0,0,28.33,12.78,31.94,51" transform="translate(-32.69 -10.6)"/>
    <path class="cls-2" d="M421.82,806.19c-3.6,1.65-6.11,5.28-10.37,5.75" transform="translate(-32.69 -10.6)"/>
    <path class="cls-2" d="M484.76,678.66c3.81.7,8,5,8.85,9.21,1.21,6.26,1.32,12.42-1.5,18.42a7.07,7.07,0,0,0-.39,2.7" transform="translate(-32.69 -10.6)"/>
    <path class="cls-2" d="M313.61,720.6c2.93-5.19,7.89-5.5,13.08-5.76,6.34-.32,11.31,3.38,16.91,5.18" transform="translate(-32.69 -10.6)"/>
    <path class="cls-2" d="M428.08,711.89c-5.85-1.57-11.8-1.19-17.74-.85a4.07,4.07,0,0,0-3.62,2.09,2.24,2.24,0,0,1-2.92.73" transform="translate(-32.69 -10.6)"/>
    <path class="cls-2" d="M384,678.38l-.82-1.61" transform="translate(-32.69 -10.6)"/>
    <path class="cls-2" d="M378.24,670c-2.75-1.84-5.57-3.57-8.3-5.45-6.22-4.31-13.12-6.23-20.81-4.8a8.61,8.61,0,0,0-5.48,3.57" transform="translate(-32.69 -10.6)"/>
    <path class="cls-2" d="M337.87,665.57c-2.52-.2-3.14,2-3.14,3.45,0,3.49-2.35,6.62-1.38,10.18" transform="translate(-32.69 -10.6)"/>
    <path class="cls-2" d="M337.38,695.81l1.13,2" transform="translate(-32.69 -10.6)"/>
    <path class="cls-2" d="M307.92,723.25c-1.56,3.39-1.66,10.69-.18,14.89" transform="translate(-32.69 -10.6)"/>
    <path class="cls-2" d="M402.68,646.22c-1.78,1.66-3.82,3.14-4.05,5.87" transform="translate(-32.69 -10.6)"/>
    <path class="cls-2" d="M396.19,667.94l.77,4.32" transform="translate(-32.69 -10.6)"/>
    <path class="cls-2" d="M388.63,695.75l-.18-1.75" transform="translate(-32.69 -10.6)"/>
    <path class="cls-2" d="M438.78,670.31c.51,2.75,2.16,5.29,1.11,8.35a2.06,2.06,0,0,0,1.87,2.66" transform="translate(-32.69 -10.6)"/>
    <path class="cls-2" d="M407,645.24a10.08,10.08,0,0,0-3.88,4.5c-.75,1.78-1.72,3.16-3.72,3.53" transform="translate(-32.69 -10.6)"/>
    <path class="cls-2" d="M309.66,726.9l-.37,8.18" transform="translate(-32.69 -10.6)"/>
    <path class="cls-2" d="M338,670c-1.6,2.33-1,5.31-2.28,7.72" transform="translate(-32.69 -10.6)"/>
    <path class="cls-2" d="M432.16,802.24c1.37,1.67,2.91,3.25,3.08,5.59" transform="translate(-32.69 -10.6)"/>
    <path class="cls-2" d="M457.92,800.83c-2.57,1-5.47,1.37-7.2,3.9" transform="translate(-32.69 -10.6)"/>
    <path class="cls-2" d="M384.31,693.6c.76,1.86-1.79,2.92-1.15,4.76" transform="translate(-32.69 -10.6)"/>
    <path class="cls-2" d="M413.49,713c-1.57,1.4-3.43.87-5.22.75" transform="translate(-32.69 -10.6)"/>
    <path class="cls-2" d="M381.53,683.44c-.49,2.89,1.4,5.08,2.25,7.58l-1.34.31" transform="translate(-32.69 -10.6)"/>
    <path class="cls-2" d="M482.88,709.67c-1.54,1.32-1.65,3.64-3.39,4.82" transform="translate(-32.69 -10.6)"/>
    <path class="cls-2" d="M477.8,675.76c-1.35-.85-3.19-.7-3.92.12-1.21,1.35-1.91-.29-2.78.06" transform="translate(-32.69 -10.6)"/>
    <path class="cls-2" d="M382.16,705.78l1,4.27" transform="translate(-32.69 -10.6)"/>
    <path class="cls-2" d="M446.35,664.08c.13,1.47,1.06,2.83.55,4.37" transform="translate(-32.69 -10.6)"/>
    <path class="cls-2" d="M443.14,654c.19,1,.65,2,.26,3.08" transform="translate(-32.69 -10.6)"/>
  </g>
  <g>
    <path class="cls-1" d="M240.14,667.78c-2.57.35-4-1.43-5.86-2.17-1.7-.68-3.64-2-5.23-.11-3.2,3.84-7,6.29-12.1,6.66-4.31.32-8.55,1.94-12.94.78-11.61-3.07-21.29-8.57-27.45-19.58-2.48-4.43-4.55-8.78-5.21-13.72-.79-5.82-1.11-11.87,1.76-17.11,4.18-7.65,9.12-14.9,13.76-22.29a14.64,14.64,0,0,1,4.38-4.86c4-2.49,6.8-6.32,10.53-9.16,5.55-4.22,11.11-8.15,18.15-9.46-.39-1.34-2,.31-2.52-1.49,5.88-1.79,12-.12,17.87-1.09-5.82-1.26-11.74-.84-17.6-1.29-3.44-.26-6.71,1.11-9.44,2.58a68.61,68.61,0,0,0-24.65,21.73c-3.92,5.73-8.16,11.27-12.26,16.89A32.8,32.8,0,0,0,165,639.22c.93,5.87,2.36,11.86,5.71,17.29,3.12,5,6.63,9.82,11.21,13.16,4.94,3.6,9.93,8.16,17,7.51a3.4,3.4,0,0,1,2.66,1.29c2.6,2.65,5.77,2.36,9,1.51,1.54-.41,3.06-1.46,4.56-1.39,5,.23,8.61-2.48,12.1-5.22,2.93-2.3,5.43-2.51,8.8-1.06,5.51,2.37,11.65,3.8,17.4,3.24a29.71,29.71,0,0,0,22.83-13.81c3-4.77,5.74-9.78,8.4-14.79,1.15-2.16,2.4-4.52,2-7.06-.59-3.81-.15-7.56.07-11.34A38.86,38.86,0,0,0,281.08,606c-4.64-7.89-11.66-12.89-19.23-17.36-2.76-1.63-5.41-3.65-8.92-3.77a143.6,143.6,0,0,1,18.41,12c6.11,4.79,9.63,11.4,12,18.91a36.11,36.11,0,0,1,.15,22c-4.24,13-13.35,28.62-22.48,29.47.21-1.86,3.17-1.35,3.25-4.18-7.77,4.53-15.63,5.08-23.92,3.2Zm-47-109.51a5.54,5.54,0,0,1,.3,1.39c-.63,4.91-1.47,9.13-6.39,12.5-5.1,3.51-9.58,5.94-15.92,4.68-5.53-1.1-10-4-14.13-7.37-4-3.2-8.14-7.12-9.39-11.8-2-7.59-5-15.4-2.17-24.07-2.3,1.88-1,4.63-3.24,6.59a22.61,22.61,0,0,1,2.5-12.25c-1.88.77-2.76,1.85-2.82,2.88-.3,4.42-2.68,8.26-3.26,12.58a12.91,12.91,0,0,0,.3,4.34,56.46,56.46,0,0,0,10.24,22.85c5.85,7.86,14,11.92,23.14,13.74,5,1,10.43.87,14.08-4.06,3.74.19,5-2.84,7.21-5,4.15-4,5.33-9.09,5.5-14.21.34-10.59-3.53-19.91-10.38-28-.86-1-1.69-2.08-3.07-2.34-3.15-.6-5.37-2.76-7.94-4.41-7.19-4.65-15-6.23-23.36-3.56-1.33.42-2.75.89-2.8,2.85,6.21-2.48,8.51-3,12.27-2.42,12.93,2.1,24.88,12.91,27.6,26.69-1.82.41-1.12-3.87-3.45-2.23l2.87,12.52Zm53.34-23.36c.75,3.33-.95,6.13-.79,9,.31,5.54-3.69,8.86-6.54,12.28-3.44,4.12-12.49,3.6-17.65.79s-8.3-7.29-11.09-12c-2.36-4-4.26-8.92-3.87-13.2.72-7.88,1.43-16.18,7.46-22.92-3,.73-3,3.94-5.3,4.85-.73-1.64,1.34-2.66.56-4.46-3.1,2.63-5.68,5.1-6.66,9.1-2.46,10.06-2.07,19.94,2,29.41,3.51,8.15,9.31,14.58,17.93,17.4,3.46,1.14,7.62,3.28,11.38-.63,2.09,2.19,4.05,1.45,5.93-.46a5.42,5.42,0,0,1,2.21-1.34c4.76-1.56,7.83-5.28,9.78-9.43,3.66-7.79,5-16.08,2.6-25l-.75,2.15c-1.21-2-.7-3.49-.53-5,.31-2.7-.17-6.12-2.53-6.79-2.52-.7-3-2.27-4.09-3.86a26.64,26.64,0,0,0-18-12,7.59,7.59,0,0,0-7,1.81c17.73-3.1,32.12,18.7,27.81,35.17C248.39,538.14,248.05,536.35,246.44,534.91Zm46.89,6.4c6.62,4.93,8.18,11.78,7.23,19.17-.91,7-4.12,13-11.38,16.9.52-1.76,1.54-2.81.21-4.06-1.4,2.22-3.9,2.94-6,4.2-5.62,3.39-12.47,2.25-17.36-2.17-5.55-5-5.9-13.26-3.57-19.92,1.59-4.53,3.88-8.82,8.81-11.36a65.66,65.66,0,0,1,13.29-5.5c-1.85-.94-3.34.6-4.56-.54.44-1.37,2.41-.36,2.66-1.9a11.12,11.12,0,0,0-10.75.48c-8.29,5-15.11,11.32-17,21.43-2.91,15.65,5.76,28.23,21.7,29.61,10.4.9,27.93-10.23,25.68-23.43a4.71,4.71,0,0,1,.2-1.73c1.48-6.7-.37-12.66-4.07-18.2C297.24,542.47,295.88,540.91,293.33,541.31Zm-137.92,53.9c.67,1.84,1.23,3.64,2,5.35a13.85,13.85,0,0,0,2.37,4.29c2,2,3.49,5.7,1.89,6.9-3.09,2.31-4.48,6.07-7.77,8.13-7.07,4.45-15.16,2.59-23-2.23-2.92-1.8-6.45-3.72-7.77-6.85-2.64-6.26-6.85-12.15-5.67-19.95-1.82,1.85-.38,4-1.89,5.95a19.57,19.57,0,0,1,.14-10.76c-3.53,2.34-1.44,5.51-2.26,8-1.71,5.28-.13,10,2.33,14.63,1.24,2.33,2.91,4.34,4.34,6.51,5.59,8.51,13.61,12.64,23.48,13.83,2,.24,3.73.09,5-2.14,1.92,2.74,3.66,1.79,5.77.62,4.34-2.4,7.88-5,10.41-9.8a21.48,21.48,0,0,0,2.62-12.83c-.79-7.5-4.36-13.83-9.5-19.29-2.65-2.82-5.49-5.2-9.71-5.22a9.07,9.07,0,0,1-3.7-1.24c-6.8-3.38-13.58-2.61-20.27.17-1.4.58-3.3,1.34-3,3.78,12.29-8.74,28.81-3.38,36.71,11.72C157.32,596,156.48,594.24,155.41,595.21Z" transform="translate(-32.69 -10.6)"/>
    <path class="cls-1" d="M240.14,667.78l.15-1.49c8.29,1.88,16.15,1.33,23.92-3.2-.08,2.83-3,2.32-3.25,4.18,9.13-.85,18.24-16.52,22.48-29.47a36.11,36.11,0,0,0-.15-22c-2.32-7.51-5.84-14.12-12-18.91a143.6,143.6,0,0,0-18.41-12c3.51.12,6.16,2.14,8.92,3.77,7.57,4.47,14.59,9.47,19.23,17.36a38.86,38.86,0,0,1,5.61,22.56c-.22,3.78-.66,7.53-.07,11.34.4,2.54-.85,4.9-2,7.06-2.66,5-5.35,10-8.4,14.79a29.71,29.71,0,0,1-22.83,13.81c-5.75.56-11.89-.87-17.4-3.24-3.37-1.45-5.87-1.24-8.8,1.06-3.49,2.74-7.14,5.45-12.1,5.22-1.5-.07-3,1-4.56,1.39-3.2.85-6.37,1.14-9-1.51a3.4,3.4,0,0,0-2.66-1.29c-7,.65-12-3.91-17-7.51-4.58-3.34-8.09-8.11-11.21-13.16-3.35-5.43-4.78-11.42-5.71-17.29a32.8,32.8,0,0,1,6.32-25.13c4.1-5.62,8.34-11.16,12.26-16.89a68.61,68.61,0,0,1,24.65-21.73c2.73-1.47,6-2.84,9.44-2.58,5.86.45,11.78,0,17.6,1.29-5.9,1-12-.7-17.87,1.09.5,1.8,2.13.15,2.52,1.49-7,1.31-12.6,5.24-18.15,9.46-3.73,2.84-6.51,6.67-10.53,9.16a14.64,14.64,0,0,0-4.38,4.86c-4.64,7.39-9.58,14.64-13.76,22.29-2.87,5.24-2.55,11.29-1.76,17.11.66,4.94,2.73,9.29,5.21,13.72,6.16,11,15.84,16.51,27.45,19.58,4.39,1.16,8.63-.46,12.94-.78,5.1-.37,8.9-2.82,12.1-6.66,1.59-1.9,3.53-.57,5.23.11C236.14,666.35,237.57,668.13,240.14,667.78Z" transform="translate(-32.69 -10.6)"/>
    <path class="cls-1" d="M193.1,558.27l-2.31,1.91-2.87-12.52c2.33-1.64,1.63,2.64,3.45,2.23-2.72-13.78-14.67-24.59-27.6-26.69-3.76-.61-6.06-.06-12.27,2.42.05-2,1.47-2.43,2.8-2.85,8.37-2.67,16.17-1.09,23.36,3.56,2.57,1.65,4.79,3.81,7.94,4.41,1.38.26,2.21,1.34,3.07,2.34,6.85,8.07,10.72,17.39,10.38,28-.17,5.12-1.35,10.16-5.5,14.21-2.22,2.16-3.47,5.19-7.21,5-3.65,4.93-9.1,5.05-14.08,4.06-9.17-1.82-17.29-5.88-23.14-13.74a56.46,56.46,0,0,1-10.24-22.85,12.91,12.91,0,0,1-.3-4.34c.58-4.32,3-8.16,3.26-12.58.06-1,.94-2.11,2.82-2.88a22.61,22.61,0,0,0-2.5,12.25c2.2-2,.94-4.71,3.24-6.59-2.85,8.67.14,16.48,2.17,24.07,1.25,4.68,5.43,8.6,9.39,11.8,4.15,3.36,8.6,6.27,14.13,7.37,6.34,1.26,10.82-1.17,15.92-4.68,4.92-3.37,5.76-7.59,6.39-12.5A5.54,5.54,0,0,0,193.1,558.27Z" transform="translate(-32.69 -10.6)"/>
    <path class="cls-1" d="M246.44,534.91c1.61,1.44,1.95,3.23,2.88,4.84,4.31-16.47-10.08-38.27-27.81-35.17a7.59,7.59,0,0,1,7-1.81,26.64,26.64,0,0,1,18,12c1.06,1.59,1.57,3.16,4.09,3.86,2.36.67,2.84,4.09,2.53,6.79-.17,1.54-.68,3,.53,5l.75-2.15c2.38,8.91,1.06,17.2-2.6,25-2,4.15-5,7.87-9.78,9.43a5.42,5.42,0,0,0-2.21,1.34c-1.88,1.91-3.84,2.65-5.93.46-3.76,3.91-7.92,1.77-11.38.63-8.62-2.82-14.42-9.25-17.93-17.4-4.08-9.47-4.47-19.35-2-29.41,1-4,3.56-6.47,6.66-9.1.78,1.8-1.29,2.82-.56,4.46,2.35-.91,2.32-4.12,5.3-4.85-6,6.74-6.74,15-7.46,22.92-.39,4.28,1.51,9.21,3.87,13.2,2.79,4.71,6,9.21,11.09,12s14.21,3.33,17.65-.79c2.85-3.42,6.85-6.74,6.54-12.28C245.49,541,247.19,538.24,246.44,534.91Z" transform="translate(-32.69 -10.6)"/>
    <path class="cls-1" d="M293.33,541.31c2.55-.4,3.91,1.16,5.12,3,3.7,5.54,5.55,11.5,4.07,18.2a4.71,4.71,0,0,0-.2,1.73c2.25,13.2-15.28,24.33-25.68,23.43-15.94-1.38-24.61-14-21.7-29.61,1.88-10.11,8.7-16.42,17-21.43a11.12,11.12,0,0,1,10.75-.48c-.25,1.54-2.22.53-2.66,1.9,1.22,1.14,2.71-.4,4.56.54a65.66,65.66,0,0,0-13.29,5.5c-4.93,2.54-7.22,6.83-8.81,11.36-2.33,6.66-2,14.91,3.57,19.92,4.89,4.42,11.74,5.56,17.36,2.17,2.08-1.26,4.58-2,6-4.2,1.33,1.25.31,2.3-.21,4.06,7.26-3.92,10.47-9.87,11.38-16.9C301.51,553.09,300,546.24,293.33,541.31Z" transform="translate(-32.69 -10.6)"/>
    <path class="cls-1" d="M155.41,595.21c1.07-1,1.91.76,2.6-.43-7.9-15.1-24.42-20.46-36.71-11.72-.35-2.44,1.55-3.2,3-3.78,6.69-2.78,13.47-3.55,20.27-.17a9.07,9.07,0,0,0,3.7,1.24c4.22,0,7.06,2.4,9.71,5.22,5.14,5.46,8.71,11.79,9.5,19.29a21.48,21.48,0,0,1-2.62,12.83c-2.53,4.78-6.07,7.4-10.41,9.8-2.11,1.17-3.85,2.12-5.77-.62-1.28,2.23-3,2.38-5,2.14-9.87-1.19-17.89-5.32-23.48-13.83-1.43-2.17-3.1-4.18-4.34-6.51-2.46-4.63-4-9.35-2.33-14.63.82-2.49-1.27-5.66,2.26-8a19.57,19.57,0,0,0-.14,10.76c1.51-1.94.07-4.1,1.89-5.95-1.18,7.8,3,13.69,5.67,19.95,1.32,3.13,4.85,5.05,7.77,6.85,7.8,4.82,15.89,6.68,23,2.23,3.29-2.06,4.68-5.82,7.77-8.13,1.6-1.2.07-4.94-1.89-6.9a13.85,13.85,0,0,1-2.37-4.29C156.64,598.85,156.08,597.05,155.41,595.21Z" transform="translate(-32.69 -10.6)"/>
    <path class="cls-2" d="M275.85,658.25a55.63,55.63,0,0,0,8.85-19.36,48.1,48.1,0,0,0,1.21-11.28c-.13-14.24-5.62-25.7-17.63-33.72-5.07-3.39-10.21-6.66-15.32-10,0,0,28.34,12.79,31.94,51" transform="translate(-32.69 -10.6)"/>
    <path class="cls-2" d="M229.34,669.14c-3.61,1.65-6.11,5.29-10.38,5.75" transform="translate(-32.69 -10.6)"/>
    <path class="cls-2" d="M292.28,541.61c3.8.7,8,5,8.84,9.22,1.21,6.26,1.32,12.42-1.5,18.41a7.1,7.1,0,0,0-.39,2.7" transform="translate(-32.69 -10.6)"/>
    <path class="cls-2" d="M121.12,583.56c2.93-5.2,7.89-5.5,13.08-5.76,6.34-.32,11.31,3.37,16.92,5.17" transform="translate(-32.69 -10.6)"/>
    <path class="cls-2" d="M235.59,574.85c-5.85-1.57-11.8-1.2-17.73-.86a4.1,4.1,0,0,0-3.63,2.1,2.25,2.25,0,0,1-2.92.73" transform="translate(-32.69 -10.6)"/>
    <path class="cls-2" d="M191.49,541.34l-.82-1.61" transform="translate(-32.69 -10.6)"/>
    <path class="cls-2" d="M185.75,533c-2.75-1.85-5.57-3.57-8.29-5.46-6.22-4.3-13.13-6.23-20.81-4.8a8.63,8.63,0,0,0-5.49,3.57" transform="translate(-32.69 -10.6)"/>
    <path class="cls-2" d="M145.38,528.53c-2.52-.21-3.14,2-3.14,3.44,0,3.5-2.34,6.62-1.38,10.19" transform="translate(-32.69 -10.6)"/>
    <path class="cls-2" d="M144.89,558.77l1.13,2" transform="translate(-32.69 -10.6)"/>
    <path class="cls-2" d="M115.44,586.21c-1.57,3.39-1.66,10.69-.19,14.88" transform="translate(-32.69 -10.6)"/>
    <path class="cls-2" d="M210.19,509.17c-1.78,1.66-3.81,3.15-4.05,5.87" transform="translate(-32.69 -10.6)"/>
    <path class="cls-2" d="M203.71,530.89l.76,4.32" transform="translate(-32.69 -10.6)"/>
    <path class="cls-2" d="M196.14,558.71,196,557" transform="translate(-32.69 -10.6)"/>
    <path class="cls-2" d="M246.3,533.27c.5,2.75,2.15,5.29,1.1,8.34a2.07,2.07,0,0,0,1.87,2.67" transform="translate(-32.69 -10.6)"/>
    <path class="cls-2" d="M214.46,508.19a10.1,10.1,0,0,0-3.88,4.51c-.74,1.78-1.71,3.15-3.72,3.53" transform="translate(-32.69 -10.6)"/>
    <path class="cls-2" d="M117.17,589.86,116.8,598" transform="translate(-32.69 -10.6)"/>
    <path class="cls-2" d="M145.5,533c-1.59,2.32-1,5.3-2.27,7.71" transform="translate(-32.69 -10.6)"/>
    <path class="cls-2" d="M239.67,665.2c1.37,1.67,2.92,3.25,3.08,5.58" transform="translate(-32.69 -10.6)"/>
    <path class="cls-2" d="M265.43,663.79c-2.56,1-5.46,1.37-7.2,3.9" transform="translate(-32.69 -10.6)"/>
    <path class="cls-2" d="M191.83,556.55c.76,1.87-1.8,2.93-1.16,4.76" transform="translate(-32.69 -10.6)"/>
    <path class="cls-2" d="M221,575.94c-1.58,1.4-3.43.87-5.23.75" transform="translate(-32.69 -10.6)"/>
    <path class="cls-2" d="M189.05,546.4c-.5,2.88,1.4,5.08,2.24,7.58l-1.33.3" transform="translate(-32.69 -10.6)"/>
    <path class="cls-2" d="M290.4,572.62c-1.55,1.32-1.66,3.64-3.4,4.83" transform="translate(-32.69 -10.6)"/>
    <path class="cls-2" d="M285.32,538.71c-1.35-.84-3.19-.7-3.93.13-1.2,1.35-1.91-.29-2.77.06" transform="translate(-32.69 -10.6)"/>
    <path class="cls-2" d="M189.67,568.74l1,4.27" transform="translate(-32.69 -10.6)"/>
    <path class="cls-2" d="M253.86,527c.14,1.46,1.07,2.82.55,4.37" transform="translate(-32.69 -10.6)"/>
    <path class="cls-2" d="M250.66,517c.18,1,.65,2,.25,3.09" transform="translate(-32.69 -10.6)"/>
  </g>
  <g>
    <path class="cls-1" d="M386.44,466.85c-2.58.36-4-1.43-5.87-2.17-1.7-.67-3.64-2-5.23-.1-3.19,3.83-7,6.28-12.1,6.66-4.31.31-8.54,1.93-12.94.77-11.6-3.07-21.29-8.57-27.45-19.58-2.48-4.42-4.54-8.77-5.21-13.72-.79-5.82-1.11-11.87,1.76-17.11,4.19-7.65,9.12-14.89,13.76-22.29a14.61,14.61,0,0,1,4.38-4.85c4-2.5,6.8-6.33,10.54-9.17,5.54-4.22,11.1-8.15,18.14-9.46-.38-1.34-2,.32-2.52-1.49,5.89-1.78,12-.12,17.87-1.09-5.81-1.26-11.74-.84-17.6-1.29-3.44-.26-6.71,1.12-9.43,2.58a68.53,68.53,0,0,0-24.65,21.73c-3.93,5.74-8.17,11.27-12.27,16.9a32.73,32.73,0,0,0-6.31,25.12c.93,5.87,2.35,11.86,5.7,17.29,3.12,5.05,6.64,9.83,11.21,13.17,4.94,3.59,9.93,8.15,17,7.5a3.39,3.39,0,0,1,2.66,1.29c2.6,2.66,5.77,2.36,9,1.51,1.54-.41,3.07-1.45,4.56-1.38,5,.23,8.62-2.49,12.1-5.23,2.93-2.3,5.43-2.5,8.8-1.05,5.51,2.36,11.65,3.8,17.4,3.23a29.7,29.7,0,0,0,22.83-13.81c3.06-4.77,5.74-9.78,8.4-14.78,1.15-2.17,2.4-4.53,2-7.07-.59-3.81-.15-7.56.07-11.34a38.85,38.85,0,0,0-5.6-22.56c-4.64-7.88-11.67-12.88-19.24-17.35-2.76-1.63-5.41-3.66-8.91-3.77a142.73,142.73,0,0,1,18.4,12c6.11,4.79,9.63,11.41,11.95,18.91a36.14,36.14,0,0,1,.15,22c-4.24,12.94-13.34,28.61-22.48,29.46.21-1.86,3.18-1.34,3.25-4.18-7.77,4.53-15.63,5.08-23.91,3.2ZM339.39,357.34a6.46,6.46,0,0,1,.31,1.39c-.64,4.91-1.47,9.13-6.4,12.51-5.1,3.5-9.58,5.94-15.92,4.67-5.53-1.1-10-4-14.12-7.36-4-3.21-8.15-7.12-9.4-11.8-2-7.6-5-15.4-2.17-24.07-2.29,1.87-1,4.63-3.23,6.58A22.45,22.45,0,0,1,291,327c-1.89.77-2.76,1.85-2.83,2.88-.3,4.42-2.68,8.27-3.26,12.59a12.93,12.93,0,0,0,.3,4.34,56.48,56.48,0,0,0,10.24,22.84c5.85,7.86,14,11.92,23.14,13.74,5,1,10.44.87,14.09-4.06,3.73.19,5-2.84,7.2-5,4.16-4,5.33-9.09,5.5-14.21.34-10.59-3.53-19.91-10.38-28-.85-1-1.69-2.08-3.07-2.34-3.15-.59-5.37-2.75-7.94-4.41-7.18-4.64-15-6.23-23.36-3.56-1.33.43-2.75.9-2.8,2.85,6.21-2.47,8.51-3,12.28-2.42C323,324.38,335,335.19,337.67,349c-1.83.42-1.13-3.87-3.46-2.23l2.87,12.52ZM392.73,334c.75,3.33-1,6.13-.79,9,.31,5.54-3.69,8.87-6.54,12.28-3.44,4.12-12.49,3.6-17.65.79s-8.3-7.29-11.09-12c-2.35-4-4.26-8.91-3.87-13.2.72-7.88,1.43-16.18,7.46-22.92-3,.74-2.95,3.95-5.3,4.86-.73-1.64,1.34-2.67.56-4.46-3.1,2.62-5.68,5.09-6.66,9.1-2.46,10.06-2.07,19.93,2,29.4,3.52,8.16,9.31,14.58,17.94,17.41,3.45,1.13,7.61,3.27,11.37-.64,2.09,2.19,4.05,1.45,5.94-.45a5.44,5.44,0,0,1,2.21-1.35c4.76-1.56,7.82-5.28,9.77-9.43,3.66-7.79,5-16.08,2.6-25l-.75,2.16c-1.21-2-.7-3.5-.53-5,.31-2.69-.17-6.12-2.53-6.78s-3-2.27-4.09-3.86a26.65,26.65,0,0,0-18-12,7.63,7.63,0,0,0-7,1.82c17.74-3.1,32.13,18.7,27.81,35.16C394.69,337.21,394.35,335.42,392.73,334Zm46.9,6.4c6.61,4.94,8.18,11.78,7.22,19.17-.91,7-4.12,13-11.38,16.91.52-1.76,1.55-2.82.22-4.07-1.4,2.23-3.91,2.95-6,4.2-5.62,3.4-12.47,2.26-17.36-2.16-5.55-5-5.9-13.27-3.56-19.92,1.59-4.54,3.87-8.82,8.8-11.37a66.92,66.92,0,0,1,13.3-5.5c-1.86-.93-3.35.61-4.56-.54.44-1.37,2.41-.36,2.65-1.9a11.13,11.13,0,0,0-10.74.48c-8.3,5-15.12,11.32-17,21.44-2.9,15.64,5.76,28.22,21.71,29.6,10.39.91,27.92-10.22,25.67-23.43a4.45,4.45,0,0,1,.21-1.72c1.48-6.71-.38-12.66-4.08-18.21C443.53,341.54,442.18,340,439.63,340.38ZM301.7,394.28c.67,1.85,1.23,3.64,2,5.36a13.62,13.62,0,0,0,2.38,4.28c1.95,2,3.49,5.7,1.88,6.9-3.09,2.31-4.47,6.07-7.77,8.14-7.07,4.44-15.16,2.59-23-2.24-2.91-1.8-6.45-3.72-7.76-6.85-2.64-6.26-6.86-12.15-5.68-19.95-1.82,1.86-.38,4-1.89,5.95a19.57,19.57,0,0,1,.14-10.76c-3.53,2.35-1.44,5.51-2.25,8-1.72,5.28-.13,10,2.33,14.63,1.23,2.33,2.9,4.33,4.33,6.5,5.59,8.51,13.62,12.64,23.48,13.83,2,.24,3.73.09,5-2.14,1.91,2.74,3.66,1.79,5.76.63,4.34-2.41,7.88-5,10.41-9.8a21.53,21.53,0,0,0,2.63-12.84c-.8-7.5-4.37-13.83-9.51-19.29-2.65-2.82-5.49-5.19-9.71-5.22a8.88,8.88,0,0,1-3.69-1.24c-6.8-3.38-13.59-2.6-20.28.17-1.39.58-3.3,1.35-3,3.78,12.3-8.74,28.82-3.38,36.71,11.72C303.61,395,302.78,393.31,301.7,394.28Z" transform="translate(-32.69 -10.6)"/>
    <path class="cls-1" d="M386.44,466.85l.15-1.49c8.28,1.88,16.14,1.33,23.91-3.2-.07,2.84-3,2.32-3.25,4.18,9.14-.85,18.24-16.52,22.48-29.46a36.14,36.14,0,0,0-.15-22c-2.32-7.5-5.84-14.12-11.95-18.91a142.73,142.73,0,0,0-18.4-12c3.5.11,6.15,2.14,8.91,3.77,7.57,4.47,14.6,9.47,19.24,17.35a38.85,38.85,0,0,1,5.6,22.56c-.22,3.78-.66,7.53-.07,11.34.4,2.54-.85,4.9-2,7.07-2.66,5-5.34,10-8.4,14.78a29.7,29.7,0,0,1-22.83,13.81c-5.75.57-11.89-.87-17.4-3.23-3.37-1.45-5.87-1.25-8.8,1.05-3.48,2.74-7.14,5.46-12.1,5.23-1.49-.07-3,1-4.56,1.38-3.2.85-6.37,1.15-9-1.51a3.39,3.39,0,0,0-2.66-1.29c-7,.65-12-3.91-17-7.5-4.57-3.34-8.09-8.12-11.21-13.17-3.35-5.43-4.77-11.42-5.7-17.29a32.73,32.73,0,0,1,6.31-25.12c4.1-5.63,8.34-11.16,12.27-16.9a68.53,68.53,0,0,1,24.65-21.73c2.72-1.46,6-2.84,9.43-2.58,5.86.45,11.79,0,17.6,1.29-5.89,1-12-.69-17.87,1.09.5,1.81,2.14.15,2.52,1.49-7,1.31-12.6,5.24-18.14,9.46-3.74,2.84-6.52,6.67-10.54,9.17a14.61,14.61,0,0,0-4.38,4.85c-4.64,7.4-9.57,14.64-13.76,22.29-2.87,5.24-2.55,11.29-1.76,17.11.67,5,2.73,9.3,5.21,13.72,6.16,11,15.85,16.51,27.45,19.58,4.4,1.16,8.63-.46,12.94-.77,5.1-.38,8.91-2.83,12.1-6.66,1.59-1.91,3.53-.57,5.23.1C382.43,465.42,383.86,467.21,386.44,466.85Z" transform="translate(-32.69 -10.6)"/>
    <path class="cls-1" d="M339.39,357.34l-2.31,1.91-2.87-12.52c2.33-1.64,1.63,2.65,3.46,2.23-2.72-13.77-14.68-24.58-27.6-26.69-3.77-.61-6.07,0-12.28,2.42,0-1.95,1.47-2.42,2.8-2.85,8.37-2.67,16.18-1.08,23.36,3.56,2.57,1.66,4.79,3.82,7.94,4.41,1.38.26,2.22,1.34,3.07,2.34,6.85,8.07,10.72,17.39,10.38,28-.17,5.12-1.34,10.16-5.5,14.21-2.22,2.16-3.47,5.19-7.2,5-3.65,4.93-9.11,5.05-14.09,4.06-9.17-1.82-17.29-5.88-23.14-13.74a56.48,56.48,0,0,1-10.24-22.84,12.93,12.93,0,0,1-.3-4.34c.58-4.32,3-8.17,3.26-12.59.07-1,.94-2.11,2.83-2.88a22.45,22.45,0,0,0-2.5,12.25c2.19-1.95.94-4.71,3.23-6.58-2.84,8.67.14,16.47,2.17,24.07,1.25,4.68,5.44,8.59,9.4,11.8,4.15,3.36,8.59,6.26,14.12,7.36,6.34,1.27,10.82-1.17,15.92-4.67,4.93-3.38,5.76-7.6,6.4-12.51A6.46,6.46,0,0,0,339.39,357.34Z" transform="translate(-32.69 -10.6)"/>
    <path class="cls-1" d="M392.73,334c1.62,1.44,2,3.23,2.88,4.84,4.32-16.46-10.07-38.26-27.81-35.16a7.63,7.63,0,0,1,7-1.82,26.65,26.65,0,0,1,18,12c1.06,1.59,1.58,3.15,4.09,3.86s2.84,4.09,2.53,6.78c-.17,1.54-.68,3,.53,5l.75-2.16c2.39,8.91,1.06,17.2-2.6,25-1.95,4.15-5,7.87-9.77,9.43a5.44,5.44,0,0,0-2.21,1.35c-1.89,1.9-3.85,2.64-5.94.45-3.76,3.91-7.92,1.77-11.37.64-8.63-2.83-14.42-9.25-17.94-17.41-4.08-9.47-4.47-19.34-2-29.4,1-4,3.56-6.48,6.66-9.1.78,1.79-1.29,2.82-.56,4.46,2.35-.91,2.33-4.12,5.3-4.86-6,6.74-6.74,15-7.46,22.92-.39,4.29,1.52,9.21,3.87,13.2,2.79,4.71,6,9.21,11.09,12s14.21,3.33,17.65-.79c2.85-3.41,6.85-6.74,6.54-12.28C391.78,340.11,393.48,337.31,392.73,334Z" transform="translate(-32.69 -10.6)"/>
    <path class="cls-1" d="M439.63,340.38c2.55-.4,3.9,1.16,5.11,3,3.7,5.55,5.56,11.5,4.08,18.21a4.45,4.45,0,0,0-.21,1.72c2.25,13.21-15.28,24.34-25.67,23.43-15.95-1.38-24.61-14-21.71-29.6,1.88-10.12,8.7-16.42,17-21.44A11.13,11.13,0,0,1,429,335.2c-.24,1.54-2.21.53-2.65,1.9,1.21,1.15,2.7-.39,4.56.54a66.92,66.92,0,0,0-13.3,5.5c-4.93,2.55-7.21,6.83-8.8,11.37-2.34,6.65-2,14.9,3.56,19.92,4.89,4.42,11.74,5.56,17.36,2.16,2.08-1.25,4.59-2,6-4.2,1.33,1.25.3,2.31-.22,4.07,7.26-3.93,10.47-9.88,11.38-16.91C447.81,352.16,446.24,345.32,439.63,340.38Z" transform="translate(-32.69 -10.6)"/>
    <path class="cls-1" d="M301.7,394.28c1.08-1,1.91.76,2.6-.43-7.89-15.1-24.41-20.46-36.71-11.72-.35-2.43,1.56-3.2,3-3.78,6.69-2.77,13.48-3.55,20.28-.17a8.88,8.88,0,0,0,3.69,1.24c4.22,0,7.06,2.4,9.71,5.22,5.14,5.46,8.71,11.79,9.51,19.29a21.53,21.53,0,0,1-2.63,12.84c-2.53,4.77-6.07,7.39-10.41,9.8-2.1,1.16-3.85,2.11-5.76-.63-1.29,2.23-3,2.38-5,2.14-9.86-1.19-17.89-5.32-23.48-13.83-1.43-2.17-3.1-4.17-4.33-6.5-2.46-4.64-4.05-9.35-2.33-14.63.81-2.5-1.28-5.66,2.25-8a19.57,19.57,0,0,0-.14,10.76c1.51-1.94.07-4.09,1.89-5.95-1.18,7.8,3,13.69,5.68,19.95,1.31,3.13,4.85,5.05,7.76,6.85,7.8,4.83,15.89,6.68,23,2.24,3.3-2.07,4.68-5.83,7.77-8.14,1.61-1.2.07-4.94-1.88-6.9a13.62,13.62,0,0,1-2.38-4.28C302.93,397.92,302.37,396.13,301.7,394.28Z" transform="translate(-32.69 -10.6)"/>
    <path class="cls-2" d="M422.15,457.32A55.6,55.6,0,0,0,431,438a48.58,48.58,0,0,0,1.22-11.28c-.14-14.23-5.63-25.7-17.64-33.72-5.06-3.38-10.21-6.66-15.32-10,0,0,28.34,12.78,31.95,51" transform="translate(-32.69 -10.6)"/>
    <path class="cls-2" d="M375.63,468.21c-3.61,1.65-6.11,5.29-10.38,5.75" transform="translate(-32.69 -10.6)"/>
    <path class="cls-2" d="M438.57,340.68c3.8.7,8,5,8.84,9.22,1.22,6.26,1.33,12.42-1.49,18.42a7.07,7.07,0,0,0-.39,2.7" transform="translate(-32.69 -10.6)"/>
    <path class="cls-2" d="M267.42,382.63c2.92-5.19,7.89-5.5,13.08-5.76,6.34-.32,11.3,3.37,16.91,5.18" transform="translate(-32.69 -10.6)"/>
    <path class="cls-2" d="M381.89,373.92c-5.85-1.57-11.8-1.19-17.74-.85a4.07,4.07,0,0,0-3.62,2.09,2.24,2.24,0,0,1-2.92.73" transform="translate(-32.69 -10.6)"/>
    <path class="cls-2" d="M337.78,340.41,337,338.8" transform="translate(-32.69 -10.6)"/>
    <path class="cls-2" d="M332,332.06c-2.74-1.84-5.56-3.57-8.29-5.45-6.22-4.31-13.13-6.23-20.81-4.8a8.61,8.61,0,0,0-5.48,3.57" transform="translate(-32.69 -10.6)"/>
    <path class="cls-2" d="M291.67,327.6c-2.52-.21-3.14,2-3.13,3.45,0,3.49-2.35,6.61-1.39,10.18" transform="translate(-32.69 -10.6)"/>
    <path class="cls-2" d="M291.19,357.84l1.13,2" transform="translate(-32.69 -10.6)"/>
    <path class="cls-2" d="M261.73,385.28c-1.57,3.39-1.66,10.69-.19,14.88" transform="translate(-32.69 -10.6)"/>
    <path class="cls-2" d="M356.48,308.24c-1.77,1.67-3.81,3.15-4,5.88" transform="translate(-32.69 -10.6)"/>
    <path class="cls-2" d="M350,330l.76,4.32" transform="translate(-32.69 -10.6)"/>
    <path class="cls-2" d="M342.44,357.78l-.18-1.76" transform="translate(-32.69 -10.6)"/>
    <path class="cls-2" d="M392.59,332.34c.51,2.75,2.16,5.29,1.1,8.35a2.06,2.06,0,0,0,1.87,2.66" transform="translate(-32.69 -10.6)"/>
    <path class="cls-2" d="M360.76,307.26a10.12,10.12,0,0,0-3.89,4.51c-.74,1.78-1.71,3.16-3.71,3.53" transform="translate(-32.69 -10.6)"/>
    <path class="cls-2" d="M263.46,388.93l-.37,8.18" transform="translate(-32.69 -10.6)"/>
    <path class="cls-2" d="M291.8,332.07c-1.6,2.32-1,5.3-2.28,7.72" transform="translate(-32.69 -10.6)"/>
    <path class="cls-2" d="M386,464.27c1.37,1.67,2.91,3.25,3.08,5.59" transform="translate(-32.69 -10.6)"/>
    <path class="cls-2" d="M411.72,462.86c-2.56,1-5.46,1.37-7.2,3.9" transform="translate(-32.69 -10.6)"/>
    <path class="cls-2" d="M338.12,355.62c.76,1.87-1.79,2.93-1.16,4.77" transform="translate(-32.69 -10.6)"/>
    <path class="cls-2" d="M367.3,375c-1.58,1.4-3.43.87-5.23.75" transform="translate(-32.69 -10.6)"/>
    <path class="cls-2" d="M335.34,345.47c-.5,2.88,1.4,5.08,2.24,7.58l-1.33.3" transform="translate(-32.69 -10.6)"/>
    <path class="cls-2" d="M436.69,371.69c-1.54,1.32-1.66,3.65-3.39,4.83" transform="translate(-32.69 -10.6)"/>
    <path class="cls-2" d="M431.61,337.78c-1.35-.84-3.19-.7-3.93.13-1.2,1.35-1.9-.29-2.77.06" transform="translate(-32.69 -10.6)"/>
    <path class="cls-2" d="M336,367.81l1,4.27" transform="translate(-32.69 -10.6)"/>
    <path class="cls-2" d="M400.15,326.11c.14,1.46,1.07,2.83.56,4.37" transform="translate(-32.69 -10.6)"/>
    <path class="cls-2" d="M397,316.05c.18,1,.65,2,.26,3.09" transform="translate(-32.69 -10.6)"/>
  </g>
  <g>
    <path class="cls-1" d="M160.52,370.31c-2.58.36-4-1.43-5.86-2.16-1.7-.68-3.65-2-5.24-.11-3.19,3.84-7,6.29-12.1,6.66-4.31.32-8.54,1.94-12.93.78-11.61-3.07-21.3-8.57-27.46-19.59-2.47-4.42-4.54-8.77-5.21-13.71-.78-5.82-1.11-11.88,1.76-17.12,4.19-7.64,9.12-14.89,13.76-22.29a14.92,14.92,0,0,1,4.38-4.85c4-2.49,6.81-6.32,10.54-9.16,5.55-4.23,11.1-8.15,18.15-9.46-.39-1.34-2,.31-2.53-1.49,5.89-1.79,12-.12,17.88-1.09-5.82-1.27-11.75-.84-17.61-1.29-3.44-.26-6.71,1.11-9.43,2.58A68.52,68.52,0,0,0,104,299.74C100,305.47,95.8,311,91.71,316.63a32.76,32.76,0,0,0-6.32,25.13c.93,5.87,2.35,11.86,5.71,17.29,3.11,5.05,6.63,9.82,11.21,13.16,4.93,3.6,9.93,8.16,17,7.51a3.37,3.37,0,0,1,2.67,1.29c2.6,2.65,5.76,2.36,9,1.51,1.55-.42,3.07-1.46,4.56-1.39,5,.23,8.62-2.48,12.11-5.22,2.93-2.3,5.43-2.51,8.8-1.06,5.5,2.37,11.64,3.8,17.39,3.24a29.73,29.73,0,0,0,22.84-13.81c3.05-4.77,5.74-9.78,8.39-14.79,1.15-2.16,2.4-4.52,2-7.06-.6-3.81-.16-7.56.07-11.34a38.94,38.94,0,0,0-5.61-22.56c-4.64-7.89-11.66-12.89-19.24-17.36-2.76-1.63-5.4-3.65-8.91-3.77a143.6,143.6,0,0,1,18.41,12.05c6.1,4.78,9.63,11.4,11.94,18.91a36.11,36.11,0,0,1,.16,22c-4.24,13-13.35,28.62-22.49,29.47.22-1.86,3.18-1.35,3.25-4.18-7.77,4.53-15.63,5.08-23.91,3.2Zm-47-109.5a6.14,6.14,0,0,1,.3,1.38c-.64,4.92-1.47,9.13-6.39,12.51-5.11,3.5-9.59,5.94-15.92,4.68-5.54-1.1-10-4-14.13-7.37-4-3.2-8.15-7.12-9.4-11.8-2-7.6-5-15.4-2.16-24.07-2.3,1.88-1,4.63-3.24,6.59A22.59,22.59,0,0,1,65,230.48c-1.89.77-2.76,1.85-2.83,2.88-.29,4.42-2.68,8.26-3.26,12.58a12.93,12.93,0,0,0,.3,4.34,56.73,56.73,0,0,0,10.24,22.85c5.85,7.86,14,11.92,23.14,13.74,5,1,10.44.87,14.09-4.07,3.73.2,5-2.83,7.2-5,4.16-4.05,5.34-9.1,5.5-14.21.35-10.59-3.52-19.91-10.38-28-.85-1-1.68-2.08-3.07-2.34-3.15-.6-5.36-2.76-7.93-4.42-7.19-4.64-15-6.22-23.36-3.55-1.33.42-2.75.89-2.81,2.85,6.22-2.48,8.52-3,12.28-2.42,12.92,2.1,24.88,12.91,27.6,26.69-1.83.41-1.12-3.87-3.46-2.23l2.87,12.52Zm53.33-23.36c.76,3.33-.94,6.13-.79,9,.32,5.54-3.69,8.86-6.54,12.28-3.44,4.12-12.49,3.6-17.65.79s-8.3-7.29-11.08-12c-2.36-4-4.27-8.92-3.88-13.21.72-7.87,1.44-16.17,7.47-22.91-3,.73-3,3.94-5.31,4.85-.72-1.64,1.34-2.66.56-4.46-3.1,2.63-5.68,5.1-6.66,9.1-2.46,10.06-2.06,19.94,2,29.41,3.51,8.15,9.31,14.57,17.93,17.4,3.45,1.14,7.62,3.28,11.38-.63,2.08,2.19,4.05,1.45,5.93-.46a5.42,5.42,0,0,1,2.21-1.34c4.76-1.57,7.83-5.28,9.78-9.43,3.65-7.79,5-16.08,2.6-25L174,233c-1.21-2-.71-3.49-.53-5,.3-2.7-.17-6.12-2.53-6.79-2.52-.71-3-2.27-4.09-3.86a26.68,26.68,0,0,0-18-12,7.62,7.62,0,0,0-7,1.81c17.74-3.1,32.13,18.7,27.81,35.17C168.77,240.67,168.43,238.89,166.81,237.45Zm46.9,6.4c6.62,4.93,8.18,11.78,7.22,19.16-.91,7-4.12,13-11.38,16.91.52-1.76,1.55-2.81.22-4.06-1.4,2.22-3.9,2.94-6,4.2-5.62,3.39-12.46,2.25-17.36-2.17-5.54-5-5.9-13.26-3.56-19.92,1.59-4.53,3.88-8.82,8.8-11.36a65.75,65.75,0,0,1,13.3-5.5c-1.85-.94-3.35.6-4.56-.54.44-1.38,2.41-.36,2.65-1.9a11.1,11.1,0,0,0-10.74.48c-8.29,5-15.11,11.32-17,21.43-2.91,15.65,5.75,28.23,21.7,29.61,10.4.9,27.93-10.23,25.67-23.43a4.73,4.73,0,0,1,.21-1.73c1.48-6.7-.37-12.66-4.07-18.2C217.62,245,216.26,243.44,213.71,243.85ZM75.79,297.75c.67,1.84,1.22,3.64,2,5.35a13.87,13.87,0,0,0,2.38,4.29c2,2,3.49,5.7,1.88,6.9-3.09,2.3-4.47,6.06-7.76,8.13-7.08,4.45-15.16,2.59-23-2.23-2.92-1.8-6.45-3.73-7.77-6.85-2.64-6.26-6.85-12.15-5.67-19.95-1.82,1.85-.39,4-1.89,5.95a19.47,19.47,0,0,1,.14-10.76c-3.54,2.34-1.45,5.51-2.26,8-1.72,5.28-.13,10,2.33,14.63,1.23,2.33,2.9,4.34,4.33,6.51,5.59,8.51,13.62,12.64,23.49,13.83,2,.24,3.72.09,5-2.14,1.92,2.74,3.66,1.79,5.76.62,4.34-2.4,7.88-5,10.42-9.8a21.5,21.5,0,0,0,2.62-12.84c-.79-7.49-4.36-13.83-9.5-19.29-2.66-2.81-5.49-5.19-9.72-5.21a9,9,0,0,1-3.69-1.24c-6.8-3.38-13.58-2.61-20.28.17-1.39.57-3.29,1.34-2.94,3.78,12.29-8.74,28.81-3.38,36.71,11.72C77.7,298.51,76.86,296.78,75.79,297.75Z" transform="translate(-32.69 -10.6)"/>
    <path class="cls-1" d="M160.52,370.31l.15-1.48c8.28,1.88,16.14,1.33,23.91-3.2-.07,2.83-3,2.32-3.25,4.18,9.14-.85,18.25-16.52,22.49-29.47a36.11,36.11,0,0,0-.16-22c-2.31-7.51-5.84-14.13-11.94-18.91a143.6,143.6,0,0,0-18.41-12.05c3.51.12,6.15,2.14,8.91,3.77,7.58,4.47,14.6,9.47,19.24,17.36a38.94,38.94,0,0,1,5.61,22.56c-.23,3.78-.67,7.53-.07,11.34.39,2.54-.86,4.9-2,7.06-2.65,5-5.34,10-8.39,14.79a29.73,29.73,0,0,1-22.84,13.81c-5.75.56-11.89-.87-17.39-3.24-3.37-1.45-5.87-1.24-8.8,1.06-3.49,2.74-7.15,5.45-12.11,5.22-1.49-.07-3,1-4.56,1.39-3.2.85-6.36,1.14-9-1.51a3.37,3.37,0,0,0-2.67-1.29c-7,.65-12-3.91-17-7.51-4.58-3.34-8.1-8.11-11.21-13.16-3.36-5.43-4.78-11.42-5.71-17.29a32.76,32.76,0,0,1,6.32-25.13C95.8,311,100,305.47,104,299.74A68.52,68.52,0,0,1,128.62,278c2.72-1.47,6-2.84,9.43-2.58,5.86.45,11.79,0,17.61,1.29-5.9,1-12-.7-17.88,1.09.5,1.8,2.14.15,2.53,1.49-7.05,1.31-12.6,5.23-18.15,9.46-3.73,2.84-6.52,6.67-10.54,9.16a14.92,14.92,0,0,0-4.38,4.85c-4.64,7.4-9.57,14.65-13.76,22.29-2.87,5.24-2.54,11.3-1.76,17.12.67,4.94,2.74,9.29,5.21,13.71,6.16,11,15.85,16.52,27.46,19.59,4.39,1.16,8.62-.46,12.93-.78,5.1-.37,8.91-2.82,12.1-6.66,1.59-1.91,3.54-.57,5.24.11C156.51,368.88,157.94,370.67,160.52,370.31Z" transform="translate(-32.69 -10.6)"/>
    <path class="cls-1" d="M113.48,260.81l-2.32,1.91-2.87-12.52c2.34-1.64,1.63,2.64,3.46,2.23-2.72-13.78-14.68-24.59-27.6-26.69-3.76-.61-6.06-.06-12.28,2.42.06-2,1.48-2.43,2.81-2.85,8.36-2.67,16.17-1.09,23.36,3.55,2.57,1.66,4.78,3.82,7.93,4.42,1.39.26,2.22,1.34,3.07,2.34,6.86,8.07,10.73,17.39,10.38,28-.16,5.11-1.34,10.16-5.5,14.21-2.21,2.16-3.47,5.19-7.2,5-3.65,4.94-9.1,5.06-14.09,4.07-9.17-1.82-17.29-5.88-23.14-13.74a56.73,56.73,0,0,1-10.24-22.85,12.93,12.93,0,0,1-.3-4.34c.58-4.32,3-8.16,3.26-12.58.07-1,.94-2.11,2.83-2.88a22.59,22.59,0,0,0-2.5,12.25c2.2-2,.94-4.71,3.24-6.59-2.85,8.67.14,16.47,2.16,24.07,1.25,4.68,5.44,8.6,9.4,11.8,4.15,3.36,8.59,6.27,14.13,7.37,6.33,1.26,10.81-1.18,15.92-4.68,4.92-3.38,5.75-7.59,6.39-12.51A6.14,6.14,0,0,0,113.48,260.81Z" transform="translate(-32.69 -10.6)"/>
    <path class="cls-1" d="M166.81,237.45c1.62,1.44,2,3.22,2.88,4.84,4.32-16.47-10.07-38.27-27.81-35.17a7.62,7.62,0,0,1,7-1.81,26.68,26.68,0,0,1,18,12c1.06,1.59,1.57,3.15,4.09,3.86,2.36.67,2.83,4.09,2.53,6.79-.18,1.54-.68,3,.53,5l.75-2.15c2.38,8.91,1.05,17.2-2.6,25-2,4.15-5,7.86-9.78,9.43a5.42,5.42,0,0,0-2.21,1.34c-1.88,1.91-3.85,2.65-5.93.46-3.76,3.91-7.93,1.77-11.38.63-8.62-2.83-14.42-9.25-17.93-17.4-4.08-9.47-4.48-19.35-2-29.41,1-4,3.56-6.47,6.66-9.1.78,1.8-1.28,2.82-.56,4.46,2.35-.91,2.33-4.12,5.31-4.85-6,6.74-6.75,15-7.47,22.91-.39,4.29,1.52,9.22,3.88,13.21,2.78,4.71,6,9.21,11.08,12s14.21,3.33,17.65-.79c2.85-3.42,6.86-6.74,6.54-12.28C165.87,243.58,167.57,240.78,166.81,237.45Z" transform="translate(-32.69 -10.6)"/>
    <path class="cls-1" d="M213.71,243.85c2.55-.41,3.91,1.16,5.12,3,3.7,5.54,5.55,11.5,4.07,18.2a4.73,4.73,0,0,0-.21,1.73C225,280,207.42,291.09,197,290.19c-16-1.38-24.61-14-21.7-29.61,1.88-10.11,8.7-16.42,17-21.43a11.1,11.1,0,0,1,10.74-.48c-.24,1.54-2.21.52-2.65,1.9,1.21,1.14,2.71-.4,4.56.54a65.75,65.75,0,0,0-13.3,5.5c-4.92,2.54-7.21,6.83-8.8,11.36-2.34,6.66-2,14.91,3.56,19.92,4.9,4.42,11.74,5.56,17.36,2.17,2.09-1.26,4.59-2,6-4.2,1.33,1.25.3,2.3-.22,4.06C216.81,276,220,270.05,220.93,263,221.89,255.63,220.33,248.78,213.71,243.85Z" transform="translate(-32.69 -10.6)"/>
    <path class="cls-1" d="M75.79,297.75c1.07-1,1.91.76,2.6-.43-7.9-15.1-24.42-20.46-36.71-11.72-.35-2.44,1.55-3.21,2.94-3.78,6.7-2.78,13.48-3.55,20.28-.17a9,9,0,0,0,3.69,1.24c4.23,0,7.06,2.4,9.72,5.21,5.14,5.46,8.71,11.8,9.5,19.29a21.5,21.5,0,0,1-2.62,12.84c-2.54,4.78-6.08,7.4-10.42,9.8-2.1,1.17-3.84,2.12-5.76-.62-1.29,2.23-3,2.38-5,2.14-9.87-1.19-17.9-5.32-23.49-13.83-1.43-2.17-3.1-4.18-4.33-6.51-2.46-4.63-4-9.35-2.33-14.63.81-2.49-1.28-5.66,2.26-8A19.47,19.47,0,0,0,36,299.34c1.5-1.94.07-4.1,1.89-5.95-1.18,7.8,3,13.69,5.67,19.95,1.32,3.12,4.85,5.05,7.77,6.85,7.8,4.82,15.88,6.68,23,2.23,3.29-2.07,4.67-5.83,7.76-8.13,1.61-1.2.08-4.94-1.88-6.9a13.87,13.87,0,0,1-2.38-4.29C77,301.39,76.46,299.59,75.79,297.75Z" transform="translate(-32.69 -10.6)"/>
    <path class="cls-2" d="M196.23,360.79a55.63,55.63,0,0,0,8.85-19.36,48.1,48.1,0,0,0,1.21-11.28c-.14-14.24-5.63-25.7-17.63-33.72-5.07-3.39-10.21-6.66-15.32-10,0,0,28.33,12.78,31.94,51" transform="translate(-32.69 -10.6)"/>
    <path class="cls-2" d="M149.71,371.68c-3.6,1.65-6.11,5.29-10.37,5.75" transform="translate(-32.69 -10.6)"/>
    <path class="cls-2" d="M212.65,244.15c3.81.7,8,5,8.85,9.21,1.21,6.26,1.32,12.43-1.5,18.42a7.1,7.1,0,0,0-.39,2.7" transform="translate(-32.69 -10.6)"/>
    <path class="cls-2" d="M41.5,286.09c2.93-5.19,7.89-5.49,13.08-5.76,6.34-.31,11.31,3.38,16.91,5.18" transform="translate(-32.69 -10.6)"/>
    <path class="cls-2" d="M156,277.38c-5.85-1.57-11.8-1.19-17.74-.85a4.1,4.1,0,0,0-3.62,2.1,2.24,2.24,0,0,1-2.92.72" transform="translate(-32.69 -10.6)"/>
    <path class="cls-2" d="M111.86,243.88l-.82-1.61" transform="translate(-32.69 -10.6)"/>
    <path class="cls-2" d="M106.13,235.53c-2.75-1.85-5.57-3.57-8.3-5.46-6.22-4.3-13.12-6.23-20.81-4.8a8.61,8.61,0,0,0-5.48,3.57" transform="translate(-32.69 -10.6)"/>
    <path class="cls-2" d="M65.76,231.07c-2.52-.21-3.14,2-3.14,3.44,0,3.5-2.35,6.62-1.38,10.18" transform="translate(-32.69 -10.6)"/>
    <path class="cls-2" d="M65.27,261.31l1.13,2" transform="translate(-32.69 -10.6)"/>
    <path class="cls-2" d="M35.81,288.75c-1.56,3.38-1.66,10.68-.18,14.88" transform="translate(-32.69 -10.6)"/>
    <path class="cls-2" d="M130.57,211.71c-1.78,1.66-3.82,3.15-4,5.87" transform="translate(-32.69 -10.6)"/>
    <path class="cls-2" d="M124.08,233.43l.77,4.32" transform="translate(-32.69 -10.6)"/>
    <path class="cls-2" d="M116.52,261.25l-.18-1.76" transform="translate(-32.69 -10.6)"/>
    <path class="cls-2" d="M166.67,235.81c.51,2.75,2.16,5.28,1.1,8.34a2.08,2.08,0,0,0,1.88,2.67" transform="translate(-32.69 -10.6)"/>
    <path class="cls-2" d="M134.84,210.73a10.1,10.1,0,0,0-3.88,4.51c-.75,1.78-1.72,3.15-3.72,3.53" transform="translate(-32.69 -10.6)"/>
    <path class="cls-2" d="M37.55,292.4l-.37,8.18" transform="translate(-32.69 -10.6)"/>
    <path class="cls-2" d="M65.88,235.54c-1.6,2.32-1,5.3-2.28,7.71" transform="translate(-32.69 -10.6)"/>
    <path class="cls-2" d="M160.05,367.73c1.37,1.68,2.91,3.26,3.08,5.59" transform="translate(-32.69 -10.6)"/>
    <path class="cls-2" d="M185.81,366.33c-2.57,1-5.47,1.37-7.2,3.89" transform="translate(-32.69 -10.6)"/>
    <path class="cls-2" d="M112.2,259.09c.76,1.87-1.79,2.93-1.15,4.76" transform="translate(-32.69 -10.6)"/>
    <path class="cls-2" d="M141.38,278.48c-1.58,1.4-3.43.87-5.22.75" transform="translate(-32.69 -10.6)"/>
    <path class="cls-2" d="M109.42,248.93c-.49,2.89,1.4,5.08,2.25,7.58l-1.34.31" transform="translate(-32.69 -10.6)"/>
    <path class="cls-2" d="M210.77,275.16c-1.54,1.32-1.65,3.64-3.39,4.83" transform="translate(-32.69 -10.6)"/>
    <path class="cls-2" d="M205.69,241.25c-1.35-.84-3.19-.7-3.92.13-1.21,1.35-1.91-.29-2.78.06" transform="translate(-32.69 -10.6)"/>
    <path class="cls-2" d="M110.05,271.28l1,4.27" transform="translate(-32.69 -10.6)"/>
    <path class="cls-2" d="M174.24,229.58c.13,1.46,1.06,2.82.55,4.37" transform="translate(-32.69 -10.6)"/>
    <path class="cls-2" d="M171,219.52c.19,1,.65,2,.26,3.09" transform="translate(-32.69 -10.6)"/>
  </g>
  <g>
    <path class="cls-1" d="M311.23,176.25c-2.58.36-4-1.43-5.86-2.17s-3.65-2-5.24-.11c-3.19,3.84-7,6.29-12.1,6.66-4.31.32-8.54,1.94-12.94.78-11.6-3.07-21.29-8.57-27.45-19.58-2.48-4.43-4.54-8.77-5.21-13.72-.79-5.82-1.11-11.87,1.76-17.11,4.19-7.65,9.12-14.89,13.76-22.29a14.61,14.61,0,0,1,4.38-4.85c4-2.5,6.81-6.33,10.54-9.17,5.54-4.22,11.1-8.15,18.14-9.46-.38-1.34-2,.32-2.52-1.49,5.89-1.78,12-.12,17.87-1.09-5.81-1.26-11.74-.84-17.6-1.29-3.44-.26-6.71,1.12-9.43,2.58a68.53,68.53,0,0,0-24.65,21.73c-3.93,5.74-8.17,11.27-12.27,16.9a32.73,32.73,0,0,0-6.31,25.12c.93,5.87,2.35,11.86,5.7,17.29,3.12,5.05,6.64,9.83,11.21,13.17,4.94,3.59,9.93,8.15,17,7.5a3.39,3.39,0,0,1,2.66,1.29c2.6,2.66,5.77,2.36,9,1.51,1.54-.41,3.07-1.46,4.56-1.39,5,.24,8.62-2.48,12.1-5.22,2.93-2.3,5.43-2.5,8.8-1.06,5.51,2.37,11.65,3.81,17.4,3.24a29.7,29.7,0,0,0,22.83-13.81c3.06-4.77,5.74-9.78,8.4-14.78,1.15-2.17,2.4-4.53,2-7.07-.59-3.81-.15-7.56.07-11.34a38.85,38.85,0,0,0-5.6-22.56c-4.64-7.88-11.67-12.88-19.24-17.35-2.76-1.63-5.41-3.66-8.91-3.77a142.73,142.73,0,0,1,18.4,12c6.11,4.79,9.64,11.41,11.95,18.91a36.14,36.14,0,0,1,.15,22c-4.24,12.94-13.34,28.61-22.48,29.46.21-1.86,3.18-1.34,3.25-4.18-7.77,4.53-15.63,5.08-23.91,3.2ZM264.18,66.74a6.46,6.46,0,0,1,.31,1.39c-.64,4.91-1.47,9.13-6.4,12.51-5.1,3.5-9.58,5.93-15.92,4.67-5.53-1.1-10-4-14.12-7.36-4-3.21-8.15-7.12-9.4-11.8-2-7.6-5-15.4-2.17-24.07-2.29,1.87-1,4.62-3.23,6.58a22.45,22.45,0,0,1,2.5-12.25c-1.89.77-2.76,1.85-2.83,2.88-.3,4.42-2.68,8.27-3.26,12.59a12.93,12.93,0,0,0,.3,4.34A56.61,56.61,0,0,0,220.2,79.06c5.85,7.86,14,11.92,23.14,13.74,5,1,10.44.87,14.09-4.06,3.73.19,5-2.84,7.2-5,4.16-4,5.33-9.09,5.5-14.21.34-10.59-3.53-19.91-10.38-28-.85-1-1.68-2.08-3.07-2.34-3.15-.59-5.37-2.75-7.94-4.41-7.18-4.64-15-6.23-23.36-3.56-1.33.42-2.75.9-2.8,2.85,6.21-2.47,8.51-3,12.28-2.42,12.92,2.11,24.88,12.92,27.6,26.69-1.83.42-1.13-3.87-3.46-2.23l2.87,12.52Zm53.34-23.36c.75,3.33-.95,6.13-.79,9,.31,5.54-3.69,8.87-6.54,12.28-3.44,4.12-12.49,3.6-17.65.79s-8.3-7.29-11.08-12c-2.36-4-4.27-8.91-3.88-13.2C278.3,32.33,279,24,285,17.29c-3,.74-3,3.94-5.3,4.85-.73-1.63,1.34-2.66.56-4.46-3.1,2.63-5.68,5.1-6.66,9.11-2.46,10.06-2.07,19.93,2,29.4,3.52,8.16,9.31,14.58,17.94,17.41C297,74.73,301.2,76.87,305,73c2.09,2.19,4.05,1.45,5.94-.45a5.44,5.44,0,0,1,2.21-1.35c4.76-1.56,7.83-5.28,9.77-9.43,3.66-7.79,5-16.08,2.6-25l-.75,2.16c-1.21-2-.7-3.5-.53-5,.31-2.69-.17-6.12-2.53-6.78-2.51-.71-3-2.27-4.09-3.86a26.65,26.65,0,0,0-18-12,7.65,7.65,0,0,0-7,1.81c17.74-3.09,32.13,18.7,27.81,35.17C319.48,46.61,319.14,44.82,317.52,43.38Zm46.9,6.4C371,54.72,372.6,61.56,371.64,69c-.91,7-4.12,13-11.38,16.91.52-1.77,1.55-2.82.22-4.07-1.4,2.22-3.9,2.95-6,4.2-5.62,3.4-12.47,2.26-17.36-2.17-5.55-5-5.9-13.26-3.56-19.91,1.59-4.54,3.88-8.82,8.8-11.37a66.33,66.33,0,0,1,13.3-5.5c-1.85-.93-3.35.61-4.56-.54.44-1.37,2.41-.36,2.65-1.9a11.13,11.13,0,0,0-10.74.48c-8.3,5-15.12,11.32-17,21.43-2.9,15.65,5.76,28.23,21.71,29.61,10.39.91,27.92-10.22,25.67-23.43a4.52,4.52,0,0,1,.21-1.73c1.48-6.7-.38-12.66-4.08-18.2C368.32,50.94,367,49.38,364.42,49.78Zm-137.93,53.9c.67,1.85,1.23,3.64,2,5.35a13.67,13.67,0,0,0,2.38,4.29c2,2,3.49,5.7,1.88,6.9-3.09,2.31-4.47,6.07-7.77,8.14-7.07,4.44-15.16,2.58-23-2.24-2.91-1.8-6.45-3.72-7.76-6.85-2.64-6.26-6.86-12.15-5.68-20-1.82,1.85-.38,4-1.89,6a19.57,19.57,0,0,1,.14-10.76c-3.53,2.35-1.44,5.51-2.25,8-1.72,5.29-.13,10,2.33,14.64,1.23,2.33,2.9,4.33,4.33,6.5,5.59,8.51,13.62,12.64,23.48,13.83,2,.24,3.73.09,5-2.14,1.92,2.74,3.66,1.79,5.76.62,4.34-2.4,7.88-5,10.41-9.79a21.53,21.53,0,0,0,2.63-12.84c-.8-7.5-4.37-13.83-9.51-19.29-2.65-2.82-5.49-5.19-9.71-5.22a8.88,8.88,0,0,1-3.69-1.24c-6.8-3.38-13.58-2.6-20.28.17-1.39.58-3.3,1.35-3,3.78,12.3-8.74,28.82-3.38,36.71,11.72C228.4,104.44,227.57,102.71,226.49,103.68Z" transform="translate(-32.69 -10.6)"/>
    <path class="cls-1" d="M311.23,176.25l.15-1.49c8.28,1.88,16.14,1.33,23.91-3.2-.07,2.84-3,2.32-3.25,4.18,9.14-.85,18.24-16.52,22.48-29.46a36.14,36.14,0,0,0-.15-22c-2.31-7.5-5.84-14.12-11.95-18.91a142.73,142.73,0,0,0-18.4-12c3.5.11,6.15,2.14,8.91,3.77,7.57,4.47,14.6,9.47,19.24,17.35a38.85,38.85,0,0,1,5.6,22.56c-.22,3.78-.66,7.53-.07,11.34.4,2.54-.85,4.9-2,7.07-2.66,5-5.34,10-8.4,14.78A29.7,29.7,0,0,1,324.47,184c-5.75.57-11.89-.87-17.4-3.24-3.37-1.44-5.87-1.24-8.8,1.06-3.48,2.74-7.14,5.46-12.1,5.22-1.49-.07-3,1-4.56,1.39-3.2.85-6.37,1.15-9-1.51a3.39,3.39,0,0,0-2.66-1.29c-7,.65-12-3.91-17-7.5-4.57-3.34-8.09-8.12-11.21-13.17-3.35-5.43-4.77-11.42-5.7-17.29a32.73,32.73,0,0,1,6.31-25.12c4.1-5.63,8.34-11.16,12.27-16.9a68.53,68.53,0,0,1,24.65-21.73c2.72-1.46,6-2.84,9.43-2.58,5.86.45,11.79,0,17.6,1.29-5.89,1-12-.69-17.87,1.09.5,1.81,2.14.15,2.52,1.49-7,1.31-12.6,5.24-18.14,9.46-3.73,2.84-6.52,6.67-10.54,9.17a14.61,14.61,0,0,0-4.38,4.85c-4.64,7.4-9.57,14.64-13.76,22.29-2.87,5.24-2.55,11.29-1.76,17.11.67,4.95,2.73,9.29,5.21,13.72,6.16,11,15.85,16.51,27.45,19.58,4.4,1.16,8.63-.46,12.94-.78,5.1-.37,8.91-2.82,12.1-6.66,1.59-1.9,3.53-.56,5.24.11S308.65,176.61,311.23,176.25Z" transform="translate(-32.69 -10.6)"/>
    <path class="cls-1" d="M264.18,66.74l-2.31,1.91L259,56.13c2.33-1.64,1.63,2.65,3.46,2.23-2.72-13.77-14.68-24.58-27.6-26.69-3.77-.61-6.07-.05-12.28,2.42,0-2,1.47-2.43,2.8-2.85,8.37-2.67,16.18-1.08,23.36,3.56,2.57,1.66,4.79,3.82,7.94,4.41,1.39.26,2.22,1.34,3.07,2.34,6.85,8.07,10.72,17.39,10.38,28-.17,5.12-1.34,10.16-5.5,14.21-2.22,2.16-3.47,5.19-7.2,5-3.65,4.93-9.11,5.05-14.09,4.06-9.17-1.82-17.29-5.88-23.14-13.74A56.61,56.61,0,0,1,210,56.22a12.93,12.93,0,0,1-.3-4.34c.58-4.32,3-8.17,3.26-12.59.07-1,.94-2.11,2.83-2.88a22.45,22.45,0,0,0-2.5,12.25c2.19-2,.94-4.71,3.23-6.58-2.84,8.67.14,16.47,2.17,24.07,1.25,4.68,5.44,8.59,9.4,11.8,4.15,3.35,8.59,6.26,14.12,7.36,6.34,1.26,10.82-1.17,15.92-4.67,4.93-3.38,5.76-7.6,6.4-12.51A6.46,6.46,0,0,0,264.18,66.74Z" transform="translate(-32.69 -10.6)"/>
    <path class="cls-1" d="M317.52,43.38c1.62,1.44,2,3.23,2.88,4.84,4.32-16.47-10.07-38.26-27.81-35.17a7.65,7.65,0,0,1,7-1.81,26.65,26.65,0,0,1,18,12c1.06,1.59,1.58,3.15,4.09,3.86,2.36.66,2.84,4.09,2.53,6.78-.17,1.54-.68,3,.53,5l.75-2.16c2.39,8.91,1.06,17.2-2.6,25-1.94,4.15-5,7.87-9.77,9.43a5.44,5.44,0,0,0-2.21,1.35c-1.89,1.9-3.85,2.64-5.94.45-3.76,3.91-7.92,1.77-11.37.64-8.63-2.83-14.42-9.25-17.94-17.41-4.08-9.47-4.47-19.34-2-29.4,1-4,3.56-6.48,6.66-9.11.78,1.8-1.29,2.83-.56,4.46,2.35-.91,2.33-4.11,5.3-4.85-6,6.74-6.74,15-7.46,22.92-.39,4.29,1.52,9.21,3.88,13.2,2.78,4.71,6,9.21,11.08,12s14.21,3.33,17.65-.79c2.85-3.41,6.85-6.74,6.54-12.28C316.57,49.51,318.27,46.71,317.52,43.38Z" transform="translate(-32.69 -10.6)"/>
    <path class="cls-1" d="M364.42,49.78c2.55-.4,3.9,1.16,5.11,3,3.7,5.54,5.56,11.5,4.08,18.2a4.52,4.52,0,0,0-.21,1.73C375.65,85.9,358.12,97,347.73,96.12c-16-1.38-24.61-14-21.71-29.61,1.88-10.11,8.7-16.41,17-21.43a11.13,11.13,0,0,1,10.74-.48c-.24,1.54-2.21.53-2.65,1.9,1.21,1.15,2.71-.39,4.56.54a66.33,66.33,0,0,0-13.3,5.5c-4.92,2.55-7.21,6.83-8.8,11.37-2.34,6.65-2,14.9,3.56,19.91,4.89,4.43,11.74,5.57,17.36,2.17,2.09-1.25,4.59-2,6-4.2,1.33,1.25.3,2.3-.22,4.07C367.52,81.93,370.73,76,371.64,69,372.6,61.56,371,54.72,364.42,49.78Z" transform="translate(-32.69 -10.6)"/>
    <path class="cls-1" d="M226.49,103.68c1.08-1,1.91.76,2.6-.43-7.89-15.1-24.41-20.46-36.71-11.72-.35-2.43,1.56-3.2,3-3.78,6.7-2.77,13.48-3.55,20.28-.17a8.88,8.88,0,0,0,3.69,1.24c4.22,0,7.06,2.4,9.71,5.22,5.14,5.46,8.71,11.79,9.51,19.29a21.53,21.53,0,0,1-2.63,12.84c-2.53,4.77-6.07,7.39-10.41,9.79-2.1,1.17-3.84,2.12-5.76-.62-1.29,2.23-3,2.38-5,2.14-9.86-1.19-17.89-5.32-23.48-13.83-1.43-2.17-3.1-4.17-4.33-6.5-2.46-4.64-4-9.35-2.33-14.64.81-2.49-1.28-5.65,2.25-8a19.57,19.57,0,0,0-.14,10.76c1.51-1.94.07-4.1,1.89-6-1.18,7.8,3,13.69,5.68,20,1.31,3.13,4.85,5,7.76,6.85,7.8,4.82,15.89,6.68,23,2.24,3.3-2.07,4.68-5.83,7.77-8.14,1.61-1.2.08-4.94-1.88-6.9a13.67,13.67,0,0,1-2.38-4.29C227.72,107.32,227.16,105.53,226.49,103.68Z" transform="translate(-32.69 -10.6)"/>
    <path class="cls-2" d="M346.94,166.72a55.6,55.6,0,0,0,8.84-19.36A48,48,0,0,0,357,136.08c-.14-14.23-5.63-25.7-17.63-33.72C334.3,99,329.15,95.7,324,92.38c0,0,28.34,12.78,31.95,51" transform="translate(-32.69 -10.6)"/>
    <path class="cls-2" d="M300.42,177.61c-3.61,1.65-6.11,5.29-10.37,5.75" transform="translate(-32.69 -10.6)"/>
    <path class="cls-2" d="M363.36,50.08c3.8.7,8,5,8.84,9.22,1.22,6.26,1.33,12.42-1.49,18.42a7,7,0,0,0-.39,2.7" transform="translate(-32.69 -10.6)"/>
    <path class="cls-2" d="M192.21,92c2.92-5.2,7.89-5.5,13.08-5.76,6.34-.32,11.3,3.37,16.91,5.18" transform="translate(-32.69 -10.6)"/>
    <path class="cls-2" d="M306.68,83.32c-5.85-1.57-11.8-1.19-17.74-.85a4.07,4.07,0,0,0-3.62,2.09,2.24,2.24,0,0,1-2.92.73" transform="translate(-32.69 -10.6)"/>
    <path class="cls-2" d="M262.57,49.81l-.82-1.61" transform="translate(-32.69 -10.6)"/>
    <path class="cls-2" d="M256.83,41.46c-2.74-1.84-5.56-3.57-8.29-5.45-6.22-4.31-13.13-6.23-20.81-4.8a8.55,8.55,0,0,0-5.48,3.56" transform="translate(-32.69 -10.6)"/>
    <path class="cls-2" d="M216.46,37c-2.52-.21-3.14,2-3.13,3.45,0,3.49-2.35,6.61-1.39,10.18" transform="translate(-32.69 -10.6)"/>
    <path class="cls-2" d="M216,67.24l1.13,2" transform="translate(-32.69 -10.6)"/>
    <path class="cls-2" d="M186.52,94.68c-1.57,3.39-1.66,10.69-.19,14.88" transform="translate(-32.69 -10.6)"/>
    <path class="cls-2" d="M281.28,17.64c-1.78,1.66-3.82,3.15-4,5.88" transform="translate(-32.69 -10.6)"/>
    <path class="cls-2" d="M274.79,39.37l.77,4.32" transform="translate(-32.69 -10.6)"/>
    <path class="cls-2" d="M267.23,67.18l-.18-1.76" transform="translate(-32.69 -10.6)"/>
    <path class="cls-2" d="M317.38,41.74c.51,2.75,2.16,5.29,1.1,8.35a2.06,2.06,0,0,0,1.87,2.66" transform="translate(-32.69 -10.6)"/>
    <path class="cls-2" d="M285.55,16.66a10.12,10.12,0,0,0-3.89,4.51C280.92,23,280,24.33,278,24.7" transform="translate(-32.69 -10.6)"/>
    <path class="cls-2" d="M188.26,98.33l-.38,8.18" transform="translate(-32.69 -10.6)"/>
    <path class="cls-2" d="M216.59,41.47c-1.6,2.32-1,5.3-2.28,7.72" transform="translate(-32.69 -10.6)"/>
    <path class="cls-2" d="M310.76,173.67c1.37,1.67,2.91,3.25,3.08,5.59" transform="translate(-32.69 -10.6)"/>
    <path class="cls-2" d="M336.51,172.26c-2.56,1-5.46,1.37-7.2,3.9" transform="translate(-32.69 -10.6)"/>
    <path class="cls-2" d="M262.91,65c.76,1.87-1.79,2.93-1.16,4.76" transform="translate(-32.69 -10.6)"/>
    <path class="cls-2" d="M292.09,84.41c-1.58,1.4-3.43.87-5.23.75" transform="translate(-32.69 -10.6)"/>
    <path class="cls-2" d="M260.13,54.87c-.5,2.88,1.4,5.08,2.24,7.58l-1.33.3" transform="translate(-32.69 -10.6)"/>
    <path class="cls-2" d="M361.48,81.09c-1.54,1.32-1.66,3.65-3.39,4.83" transform="translate(-32.69 -10.6)"/>
    <path class="cls-2" d="M356.4,47.18c-1.35-.84-3.19-.7-3.93.13-1.2,1.35-1.9-.29-2.77.06" transform="translate(-32.69 -10.6)"/>
    <path class="cls-2" d="M260.76,77.21l1,4.27" transform="translate(-32.69 -10.6)"/>
    <path class="cls-2" d="M324.94,35.51c.14,1.46,1.07,2.82.56,4.37" transform="translate(-32.69 -10.6)"/>
    <path class="cls-2" d="M321.74,25.45c.18,1,.65,2,.26,3.09" transform="translate(-32.69 -10.6)"/>
  </g>
</svg>
